<svg xmlns="http://www.w3.org/2000/svg" xmlns:xlink="http://www.w3.org/1999/xlink" xmlns:lucid="lucid" width="2008" height="1272"><g transform="translate(4307 723)" lucid:page-tab-id="0_0"><path d="M-4500-1500h2500v2500h-2500z" fill="#fff"/><path d="M-4200 126a6 6 0 0 1 6-6h351.56a6 6 0 0 1 6 6v288a6 6 0 0 1-6 6H-4194a6 6 0 0 1-6-6z" stroke="#3a414a" stroke-width="2" fill="#fff"/><use xlink:href="#a" transform="matrix(1,0,0,1,-4195,125) translate(112.55555555555556 17.77777777777778)"/><use xlink:href="#b" transform="matrix(1,0,0,1,-4195,125) translate(176.1358024691358 17.77777777777778)"/><path d="M-3898.22 296.48c-.96-26.5-20.4-48.05-46.8-51.62-1.68-37.18-32.88-65.88-70.08-64.86-30.24-.5-55.92 17.15-66.48 45.34-31.92 3.73-55.68 29.7-56.64 61.8 1.44 35.83 31.68 63.85 67.68 62.66h118.08c29.76-.34 53.52-23.77 54.24-53.32z" stroke="#000" stroke-opacity="0" fill="url(#c)"/><path d="M-3976.45 242.63h-87.57c-.62.15-1.24-.3-1.37-1.1v-15.69c0-.3-.1-.46-.23-.77-.63-.63-1.5-.63-2.12-.16l-26.66 26.74c-.5.47-.5 1.24 0 1.86l26.65 26.58c.25.15.5.3.87.3.75 0 1.5-.6 1.5-1.4v-16c0-.77.62-1.24 1.37-1.24h13.3V373c0 3.9 3.13 7 7 7h66.5c3.86 0 6.98-3.1 6.98-7V249.63c0-3.58-2.62-6.68-6.23-7z" stroke="#000" stroke-opacity="0" fill="url(#d)"/><path d="M-4038.38 290.8c-.06-4.8 3.74-8.73 8.52-8.8H-3989.6c4.9 0 8.82 3.94 8.82 8.8-.06 4.8-3.98 8.64-8.8 8.64h-40c-4.77.07-8.74-3.75-8.8-8.5v-.15zM-4038.38 264.78c0-4.85 3.92-8.78 8.8-8.78h40c4.82.07 8.74 3.95 8.8 8.78-.06 4.83-3.98 8.7-8.8 8.78h-40c-4.88 0-8.8-3.93-8.8-8.78z" stroke="#000" stroke-opacity="0" fill="#003067"/><path d="M-4023.53 264.85c0 3.23-2.62 5.85-5.86 5.85-3.23 0-5.86-2.62-5.86-5.85 0-3.23 2.63-5.85 5.87-5.85 3.25 0 5.88 2.62 5.88 5.85zM-4023.53 290.85c0 3.23-2.62 5.85-5.86 5.85-3.23 0-5.86-2.62-5.86-5.85 0-3.23 2.63-5.85 5.87-5.85 3.25 0 5.88 2.62 5.88 5.85z" stroke="#000" stroke-opacity="0" fill="#50e6ff"/><path d="M-4006.52 340.88l-26.7 26.6c-.63.5-1.57.43-2.07-.23-.2-.23-.3-.5-.35-.83v-15.68c0-.72-.58-1.33-1.3-1.33h-13.9v-19h14.58c.67-.05 1.12-.66 1.03-1.32v-15.4c.13-.78.85-1.4 1.66-1.28.3.06.54.17.76.33l26.7 26.6c.27.55.1 1.2-.4 1.55z" stroke="#000" stroke-opacity="0" fill="#0078d4"/><use xlink:href="#e" transform="matrix(1,0,0,1,-4168.221153846154,389) translate(36.48765432098767 17.77777777777778)"/><use xlink:href="#f" transform="matrix(1,0,0,1,-4168.221153846154,389) translate(112.96913580246914 17.77777777777778)"/><use xlink:href="#g" transform="matrix(1,0,0,1,-4168.221153846154,389) translate(137.6604938271605 17.77777777777778)"/><use xlink:href="#h" transform="matrix(1,0,0,1,-4168.221153846154,389) translate(226.36419753086417 17.77777777777778)"/><path d="M-3393.28-242.9c2.94 0 5.68.52 8.3 1.6 2.53 1.03 4.8 2.47 6.74 4.27 1.87 1.8 3.4 3.9 4.54 6.3 1.14 2.43 1.67 5.03 1.67 7.78s-.53 5.35-1.67 7.78c-1.14 2.4-2.67 4.5-4.54 6.3-1.94 1.8-4.2 3.24-6.75 4.27-2.6 1.08-5.34 1.6-8.28 1.6h-24.32c-2.94 0-5.68-.52-8.3-1.6-2.53-1.03-4.8-2.47-6.74-4.27-1.87-1.8-3.4-3.9-4.54-6.3-1.14-2.43-1.67-5.03-1.67-7.78s.53-5.35 1.67-7.78c1.14-2.4 2.67-4.5 4.54-6.3 1.94-1.8 4.2-3.24 6.75-4.28 2.62-1.08 5.36-1.6 8.3-1.6h3.07v5.7c-2.4 0-4.74.24-6.95.76-2.2.52-4.14 1.36-5.8 2.52-1.68 1.1-3.02 2.6-4.02 4.4-1 1.78-1.47 3.98-1.47 6.57 0 1.95.4 3.8 1.2 5.5.8 1.72 1.87 3.24 3.28 4.55 1.4 1.28 3 2.32 4.82 3.08 1.87.75 3.8 1.1 5.88 1.1h24.32c2.07 0 4-.34 5.88-1.1 1.8-.76 3.4-1.8 4.8-3.08 1.42-1.3 2.5-2.83 3.3-4.54.8-1.72 1.2-3.56 1.2-5.5 0-2.6-.48-4.8-1.48-6.6-1-1.8-2.34-3.23-4-4.38-1.68-1.16-3.62-2-5.82-2.52s-4.55-.75-6.95-.75v-5.7h3.07z" stroke="#000" stroke-opacity="0" stroke-width="3" fill="#7fba00"/><path d="M-3426.72-220.1v-5.7c2.4 0 4.74-.24 6.95-.76 2.2-.52 4.14-1.36 5.8-2.52 1.68-1.15 3.02-2.6 4.02-4.4 1-1.78 1.47-3.98 1.47-6.57 0-1.95-.4-3.8-1.2-5.5-.8-1.76-1.87-3.24-3.28-4.55-1.4-1.28-3-2.32-4.8-3.08-1.88-.75-3.82-1.1-5.9-1.1h-24.3c-2.08 0-4.02.34-5.9 1.1-1.8.76-3.4 1.8-4.8 3.08-1.4 1.3-2.48 2.8-3.28 4.54-.8 1.72-1.2 3.56-1.2 5.5 0 2.6.47 4.8 1.47 6.6 1 1.8 2.34 3.23 4 4.38 1.68 1.16 3.62 2 5.82 2.52s4.55.75 6.95.75v5.7h-3.07c-2.94 0-5.68-.52-8.3-1.6-2.53-1.03-4.8-2.47-6.74-4.27-1.88-1.8-3.4-3.9-4.55-6.3-1.14-2.43-1.67-5.03-1.67-7.78s.53-5.35 1.67-7.78c1.14-2.4 2.67-4.5 4.54-6.3 1.93-1.8 4.2-3.24 6.74-4.27 2.6-1.08 5.35-1.6 8.3-1.6h24.3c2.95 0 5.7.52 8.3 1.6 2.54 1.03 4.8 2.47 6.75 4.26 1.86 1.8 3.4 3.92 4.53 6.3 1.14 2.44 1.67 5.04 1.67 7.8 0 2.74-.53 5.34-1.67 7.77-1.14 2.4-2.67 4.5-4.54 6.3-1.95 1.8-4.22 3.24-6.76 4.28-2.6 1.08-5.35 1.6-8.3 1.6h-3.06z" stroke="#000" stroke-opacity="0" stroke-width="3" fill="#59b4d9"/><path d="M-3447.66-220.88h23.43s19.77-.7 20.75-19.47c0 0 .8-16.32-20.1-18.85h-27.28s-14.1 1.76-17.75 16.63c0 0-2.36 14.18 12.32 20.04 0 0 2.03 1.5 8.62 1.65z" stroke="#000" stroke-opacity="0" stroke-width="0" fill-opacity="0"/><path d="M-3415.34-242.08h19.6s18.96-2.3 22.8 17.9c0 0 2.45 10.94-12.4 18.62 0 0-2.93 1.5-7.15 1.76h-26.35s-17.33-1.38-18.82-17.68c0 0-2.02-20.64 22.33-20.6z" stroke="#000" stroke-opacity="0" stroke-width="0" fill-opacity="0"/><path d="M-3425.16-451.04h6.9v33.84h-6.9z" stroke="#000" stroke-opacity="0" fill="#7a7a7a"/><path d="M-3411.66-452.1c-.02 4.35-4.56 7.88-10.15 7.86-5.6-.02-10.14-3.55-10.12-7.9.03-4.35 4.54-7.86 10.13-7.86 5.6 0 10.14 3.53 10.14 7.88v.02z" stroke="#000" stroke-opacity="0" fill="#1490df"/><path d="M-3423.1-418.96h-11.08c-6.76.06-12.35 3.77-13.48 8.97-1.24 5.87 3.8 11.42 11.34 12.4-.27-1.4-.23-2.62.12-4-4.7-.83-7.62-4.5-6.53-8.13.94-3.14 4.4-5.3 8.55-5.27h11.07c4.8 0 8.74 3.03 8.74 6.8s-3.93 6.82-8.75 6.82h-3.08c-.42.7-.58 1.36-.58 2.15 0 .65.12 1.2.43 1.8H-3422.53c7.6-.14 13.67-5.05 13.52-11-.16-5.93-6.5-10.64-14.1-10.5z" stroke="#000" stroke-opacity="0" fill="url(#i)"/><path d="M-3407.18-409.85c.12.58.16 1.08.16 1.66.04.85-.08 1.54-.3 2.35 4.7.84 7.65 4.5 6.58 8.16-.96 3.15-4.44 5.3-8.58 5.28h-11.07c-4.8-.1-8.64-3.23-8.53-7 .15-3.63 3.87-6.53 8.54-6.64h3.04c.42-.7.6-1.36.6-2.15 0-.66-.1-1.2-.4-1.8h-3.23c-7.42.13-13.36 4.76-13.5 10.52-.16 5.96 5.9 10.87 13.5 11h11.12c6.78-.06 12.37-3.8 13.48-8.97 1.26-5.88-3.83-11.43-11.34-12.4z" stroke="#000" stroke-opacity="0" fill="url(#j)"/><path d="M-3441.6-384l-2.54 2c-.66.5-1.74.54-2.4 0h-.04l-28.38-22.02c-1.36-1.08-1.36-2.8 0-3.84l2.58-1.98 30.8 23.92c.65.5.65 1.36 0 1.86z" stroke="#000" stroke-opacity="0" fill="#50e6ff"/><path d="M-3444.67-429.53l2.84 2.2c.7.53.7 1.4 0 1.9v.03l-30.28 23.56-2.85-2.2c-1.35-1.03-1.35-2.74 0-3.8l27.86-21.7c.67-.52 1.78-.52 2.43 0z" stroke="#000" stroke-opacity="0" fill="#1490df"/><path d="M-3399.62-382.42c-.7-.5-.7-1.35-.04-1.9h.04l30.75-23.84 2.58 2c1.37 1.04 1.37 2.76 0 3.83l-28.37 21.94c-.66.5-1.75.54-2.4.03l-.04-.02z" stroke="#000" stroke-opacity="0" fill="#50e6ff"/><path d="M-3394.05-427.93l27.77 21.7c1.35 1.05 1.35 2.73 0 3.8l-2.83 2.2-30.23-23.6c-.66-.53-.66-1.37 0-1.9l2.83-2.2c.7-.53 1.76-.53 2.45 0z" stroke="#000" stroke-opacity="0" fill="#1490df"/><path d="M-3444.4-429.68l48.14 1.57-2.47 2.8-.1.53 25.97 20.58-26.34 20.64 2.37 3-47.1-1.62-.38-.34 2.93-2.5-26.24-21.03 25.76-20.2-3.13-3.04z" stroke="#000" stroke-opacity="0" fill-opacity="0"/><path d="M-3220-474a6 6 0 0 1 6-6h368a6 6 0 0 1 6 6v288a6 6 0 0 1-6 6h-368a6 6 0 0 1-6-6z" stroke="#3a414a" stroke-width="2" fill="#fff"/><use xlink:href="#k" transform="matrix(1,0,0,1,-3215,-475) translate(94.41358024691358 17.77777777777778)"/><use xlink:href="#l" transform="matrix(1,0,0,1,-3215,-475) translate(190.52469135802468 17.77777777777778)"/><path d="M-2910-311.87c-.96-29.14-20.4-52.86-46.8-56.78-1.68-40.9-32.88-72.47-70.08-71.35-30.24-.56-55.92 18.87-66.48 49.87-31.92 4.1-55.68 32.7-56.64 68 1.44 39.4 31.68 70.22 67.68 68.9h118.08c29.76-.36 53.52-26.14 54.24-58.64z" stroke="#000" stroke-opacity="0" fill="url(#m)"/><path d="M-2988.23-371.1h-87.56c-.62.16-1.24-.35-1.36-1.2v-17.28c0-.33-.13-.5-.25-.85-.64-.68-1.5-.68-2.13-.17l-26.66 29.4c-.5.52-.5 1.37 0 2.06l26.67 29.23c.25.16.5.33.87.33.75 0 1.5-.7 1.5-1.54v-17.62c0-.85.62-1.36 1.37-1.36h13.33v122.4c0 4.26 3.12 7.68 6.98 7.68h66.53c3.86 0 6.97-3.42 6.97-7.7V-363.4c0-3.93-2.62-7.35-6.23-7.7z" stroke="#000" stroke-opacity="0" fill="url(#n)"/><path d="M-3050.16-318.13c-.06-5.26 3.74-9.6 8.52-9.67H-3001.37c4.9 0 8.8 4.34 8.8 9.67-.05 5.27-3.96 9.5-8.8 9.5h-39.98c-4.78.1-8.75-4.1-8.8-9.35v-.15zM-3050.16-346.74c0-5.33 3.92-9.66 8.8-9.66h40c4.83.08 8.74 4.35 8.8 9.66-.06 5.3-3.97 9.58-8.8 9.66h-40c-4.88 0-8.8-4.33-8.8-9.66z" stroke="#000" stroke-opacity="0" fill="#003067"/><path d="M-3035.3-346.67c0 3.56-2.63 6.44-5.87 6.44s-5.87-2.88-5.87-6.44c0-3.55 2.63-6.43 5.87-6.43s5.87 2.88 5.87 6.44zM-3035.3-318.06c0 3.55-2.63 6.43-5.87 6.43s-5.87-2.88-5.87-6.44c0-3.55 2.63-6.43 5.87-6.43s5.87 2.88 5.87 6.44z" stroke="#000" stroke-opacity="0" fill="#50e6ff"/><path d="M-3018.3-263.04l-26.7 29.25c-.63.56-1.57.5-2.07-.23-.22-.24-.3-.55-.36-.9v-17.26c0-.78-.58-1.45-1.3-1.45h-13.9v-20.9h14.58c.67-.06 1.12-.74 1.03-1.47v-16.94c.13-.85.85-1.52 1.66-1.4.3.06.54.18.76.37l26.7 29.26c.28.6.1 1.34-.4 1.7z" stroke="#000" stroke-opacity="0" fill="#0078d4"/><path d="M-3783.56-178.5v65.94" stroke="#3a414a" fill="none"/><path d="M-3783.08-178.5h-.95v-.5h.95z" stroke="#3a414a" stroke-width=".05" fill="#3a414a"/><path d="M-3783.56-97.8l-4.63-14.26h9.28z" stroke="#3a414a" fill="#3a414a"/><path d="M-3783.56-39.1v13.25a6 6 0 0 0 6 6h241.18" stroke="#3a414a" fill="none"/><path d="M-3783.08-39.55v.45h-.95v-.57z" stroke="#3a414a" stroke-width=".05" fill="#3a414a"/><path d="M-3521.62-19.85l-14.26 4.64v-9.29z" stroke="#3a414a" fill="#3a414a"/><use xlink:href="#o" transform="matrix(1,0,0,1,-3835.605731264001,-15.850000000000023) translate(0 14.222222222222223)"/><use xlink:href="#p" transform="matrix(1,0,0,1,-3835.605731264001,-15.850000000000023) translate(19.75308641975309 14.222222222222223)"/><use xlink:href="#q" transform="matrix(1,0,0,1,-3835.605731264001,-15.850000000000023) translate(70.0246913580247 14.222222222222223)"/><use xlink:href="#r" transform="matrix(1,0,0,1,-3835.605731264001,-15.850000000000023) translate(189.1358024691358 14.222222222222223)"/><path d="M-3945.86-474a6 6 0 0 1 6-6h312.6a6 6 0 0 1 6 6v288a6 6 0 0 1-6 6h-312.6a6 6 0 0 1-6-6z" stroke="#3a414a" stroke-width="2" fill="#fff"/><use xlink:href="#s" transform="matrix(1,0,0,1,-3940.8653846153848,-475) translate(11.882716049382765 17.77777777777778)"/><use xlink:href="#t" transform="matrix(1,0,0,1,-3940.8653846153848,-475) translate(77.68518518518523 17.77777777777778)"/><path d="M-3780.5-392.14l58.63 30.86 40.9-21.6c-5.8-9.26-11.77-16.54-20-23.96-46.48-41.81-120.98-41.28-166.73 1.15 31.18-4.82 59.56-.45 87.2 13.56z" stroke="#000" stroke-opacity="0" fill="url(#u)"/><path d="M-3722.66-361.28l-.95 73.86 42.43 10.5c4.88-7.83 8.05-14.9 10.78-23.67 17.8-57.23-18.47-116.83-81-133.14 18.3 21.8 27.45 44.86 28.74 72.46z" stroke="#000" stroke-opacity="0" fill="#0078d4"/><path d="M-3722.8-297.53l-61 32.3.95 42.87c65-.27 117.47-48.47 117.47-107.9-.12-9.07-1.3-16.8-3.9-25.63-10.66 25.52-27.95 44.34-53.53 58.37z" stroke="#000" stroke-opacity="0" fill="#5ea0ef"/><path d="M-3783.83-265.4l-61-32.24-40.48 22.2c4.94 7.77 10.06 13.9 16.84 20.38 45.06 42.8 119.62 44.02 166.33 2.72-29.3 3.92-55.5-.23-81.7-13.06z" stroke="#000" stroke-opacity="0" fill="url(#v)"/><path d="M-3844.83-297.54l.97-76.47-41.83-10.14c-11.04 17.25-16.04 34.2-16.04 54.15.27 49.56 35.25 91.2 87.7 104.2-19.12-21.38-28.95-44.34-30.8-71.74z" stroke="#000" stroke-opacity="0" fill="#0078d4"/><path d="M-3842.77-363.05l58.98-31.14c-25.47-12.68-50.7-17.57-79.6-15.3-25.48 21.17-38.45 48.08-38.34 79.55 0 10.1 1.3 18.66 4.25 28.42 10.98-26.58 28.55-46.33 54.73-61.52z" stroke="#000" stroke-opacity="0" fill="#5ea0ef"/><path d="M-3722.58-297.54v-64.5l-61.1-32.24-61.1 32.25v64.5l61.1 32.24 61.1-32.24z" stroke="#000" stroke-opacity="0" fill="#c3f1ff"/><path d="M-3783.56-329.24v63.74l-61.22-32.2v-64.23l61.22 32.7z" stroke="#000" stroke-opacity="0" fill="url(#w)"/><path d="M-3783.8-329.24v63.74l61.22-32.2v-64.23l-61.2 32.7z" stroke="#000" stroke-opacity="0" fill="#50e6ff"/><path d="M-3543.22-366.13h-76.53v-.95h76.53zm305.84 0h-60.65v-.95h60.65z" stroke="#3a414a" stroke-width=".05" fill="#3a414a"/><path d="M-3619.74-366.13h-.5v-.95h.5z" fill="#3a414a"/><path stroke="#3a414a" stroke-width=".05" fill="#3a414a"/><path d="M-3222.62-366.6l-14.26 4.63v-9.27z" fill="#3a414a"/><path d="M-3221.08-366.6l-16.28 5.3v-10.6zm-15.33 3.98l12.24-3.98-12.25-3.98z" stroke="#3a414a" stroke-width=".05" fill="#3a414a"/><use xlink:href="#x" transform="matrix(1,0,0,1,-3543.2176051094543,-377.269074480764) translate(0.0049999999999954525 14.222222222222223)"/><use xlink:href="#y" transform="matrix(1,0,0,1,-3543.2176051094543,-377.269074480764) translate(89.68401234567904 14.222222222222223)"/><use xlink:href="#z" transform="matrix(1,0,0,1,-3543.2176051094543,-377.269074480764) translate(208.79512345679015 14.222222222222223)"/><path d="M-3537.34-268.98h-66.52v-.95h66.52zm315.84 0h-82.4v-.95h82.4z" stroke="#3a414a" stroke-width=".05" fill="#3a414a"/><path d="M-3221-268.98h-.5v-.95h.5z" fill="#3a414a"/><path stroke="#3a414a" stroke-width=".05" fill="#3a414a"/><path d="M-3604.36-264.82l-14.27-4.63 14.27-4.64z" fill="#3a414a"/><path d="M-3603.9-264.17l-16.27-5.28 16.28-5.3zm-13.2-5.28l12.26 3.98v-7.97z" stroke="#3a414a" stroke-width=".05" fill="#3a414a"/><use xlink:href="#A" transform="matrix(1,0,0,1,-3537.3410281675065,-280.1207088236113) translate(0 14.222222222222223)"/><use xlink:href="#B" transform="matrix(1,0,0,1,-3537.3410281675065,-280.1207088236113) translate(19.75308641975309 14.222222222222223)"/><use xlink:href="#C" transform="matrix(1,0,0,1,-3537.3410281675065,-280.1207088236113) translate(77.92592592592594 14.222222222222223)"/><use xlink:href="#D" transform="matrix(1,0,0,1,-3537.3410281675065,-280.1207088236113) translate(197.03703703703707 14.222222222222223)"/><path d="M-3323-19.85h226.07a6 6 0 0 0 6-6v-136.77" stroke="#3a414a" fill="none"/><path d="M-3323-19.38h-.5v-.95h.5z" stroke="#3a414a" stroke-width=".05" fill="#3a414a"/><path d="M-3090.93-177.38l4.64 14.26h-9.26z" stroke="#3a414a" fill="#3a414a"/><use xlink:href="#E" transform="matrix(1,0,0,1,-3248.2679991612654,-15.850000000000023) translate(0 14.222222222222223)"/><use xlink:href="#F" transform="matrix(1,0,0,1,-3248.2679991612654,-15.850000000000023) translate(19.75308641975309 14.222222222222223)"/><use xlink:href="#G" transform="matrix(1,0,0,1,-3248.2679991612654,-15.850000000000023) translate(64.14814814814815 14.222222222222223)"/><path d="M-2950-178.5v162.62" stroke="#3a414a" fill="none"/><path d="M-2949.53-178.5h-.94v-.5h.94z" stroke="#3a414a" stroke-width=".05" fill="#3a414a"/><path d="M-2950-1.12l-4.64-14.26h9.28z" stroke="#3a414a" fill="#3a414a"/><path d="M-2950 100.97V264a6 6 0 0 1-6 6h-863.06" stroke="#3a414a" fill="none"/><path d="M-2949.53 101h-.94v-.66l.47.13.47-.13z" stroke="#3a414a" stroke-width=".05" fill="#3a414a"/><path d="M-3833.82 270l14.26-4.63v9.26z" stroke="#3a414a" fill="#3a414a"/><use xlink:href="#H" transform="matrix(1,0,0,1,-3569.95429595345,244.66666666666666) translate(0 14.222222222222223)"/><use xlink:href="#I" transform="matrix(1,0,0,1,-3569.95429595345,244.66666666666666) translate(19.75308641975309 14.222222222222223)"/><use xlink:href="#q" transform="matrix(1,0,0,1,-3569.95429595345,244.66666666666666) translate(77.92592592592594 14.222222222222223)"/><use xlink:href="#J" transform="matrix(1,0,0,1,-3569.95429595345,244.66666666666666) translate(197.03703703703707 14.222222222222223)"/><use xlink:href="#K" transform="matrix(1,0,0,1,-3569.95429595345,244.66666666666666) translate(246.27160493827165 14.222222222222223)"/><use xlink:href="#L" transform="matrix(1,0,0,1,-3569.95429595345,244.66666666666666) translate(267.90123456790127 14.222222222222223)"/><use xlink:href="#M" transform="matrix(1,0,0,1,-3569.95429595345,244.66666666666666) translate(343.80246913580254 14.222222222222223)"/><path d="M-3520-57.52h196.5v111.1c0 3.77-2.95 6.72-6.48 6.72h-183.53c-3.55 0-6.5-2.95-6.5-6.72v-111.1z" stroke="#000" stroke-opacity="0" fill="url(#N)"/><path d="M-3513.32-100h183.34c3.53 0 6.48 2.97 6.48 6.67v35.8H-3520v-35.8c0-3.7 2.95-6.67 6.5-6.67h.18z" stroke="#000" stroke-opacity="0" fill="#0078d4"/><path d="M-3490.17-87.3h137.03c2.16 0 3.3 1.1 3.3 3.34v10.46c0 2.23-1.14 3.35-3.3 3.35h-137.03c-2.15 0-3.3-1.12-3.3-3.35v-10.46c0-2.23 1.15-3.34 3.3-3.34z" stroke="#000" stroke-opacity="0" fill="#f2f2f2"/><use xlink:href="#O" transform="matrix(1,0,0,1,-3550,69.29999999999995) translate(74.775 14.4)"/><use xlink:href="#P" transform="matrix(1,0,0,1,-3550,69.29999999999995) translate(116.375 14.4)"/><path d="M-4018.22 118.5V59.36" stroke="#3a414a" fill="none"/><path d="M-4017.75 119h-.95v-.5h.95z" stroke="#3a414a" stroke-width=".05" fill="#3a414a"/><path d="M-4018.22 44.6l4.63 14.26h-9.26z" stroke="#3a414a" fill="#3a414a"/><path d="M-4017.75-57.5h-.95v-47.83h.95zm54.5-193.5h-48.95l-.9.08-.83.2-.8.34-.74.45-.66.56-.56.66-.44.73-.33.8-.2.84-.08.9V-148h-.95v-97.48l.08-1 .24-1 .4-.92.52-.87.66-.77.77-.66.87-.53.94-.4 1-.23.98-.08h49z" stroke="#3a414a" stroke-width=".05" fill="#3a414a"/><path d="M-4017.75-56.97l-.47-.03h-.48v-.5h.95z" fill="#3a414a"/><path stroke="#3a414a" stroke-width=".05" fill="#3a414a"/><path d="M-3948.48-251.46l-14.27 4.63v-9.27z" fill="#3a414a"/><path d="M-3946.95-251.46l-16.27 5.28v-10.57zm-15.32 3.98l12.25-3.98-12.25-3.98z" stroke="#3a414a" stroke-width=".05" fill="#3a414a"/><use xlink:href="#Q" transform="matrix(1,0,0,1,-4099.924857549858,-148.00000000000006) translate(45.21487654320987 14.222222222222223)"/><use xlink:href="#R" transform="matrix(1,0,0,1,-4099.924857549858,-148.00000000000006) translate(64.96796296296296 14.222222222222223)"/><use xlink:href="#S" transform="matrix(1,0,0,1,-4099.924857549858,-148.00000000000006) translate(0.0049999999999954525 35.55555555555556)"/><use xlink:href="#T" transform="matrix(1,0,0,1,-4099.924857549858,-148.00000000000006) translate(119.11611111111111 35.55555555555556)"/><path d="M-2804-570.4l1 .24.94.4.87.52.78.66.66.77.53.86.4.94.23 1 .07.98v155.45l-.07 1-.24 1-.4.93-.52.86-.66.78-.77.66-.86.53-.94.38-1 .23-.98.1h-17.64v-.96h17.6l.88-.07.85-.2.8-.33.75-.45.66-.58.57-.66.45-.74.33-.8.2-.84.08-.88v-155.38l-.08-.88-.2-.85-.33-.8-.45-.75-.56-.66-.65-.57-.74-.45-.8-.33-.84-.2-.88-.07h-1175.83l-.88.06-.84.2-.8.34-.74.45-.67.56-.56.65-.46.74-.32.8-.2.84-.07.88v182.36l.08.9.2.83.33.8.47.75.56.66.66.57.73.45.8.34.84.2.88.07h33.5v.95h-33.53l-1-.08-1-.24-.93-.4-.87-.52-.78-.66-.66-.77-.54-.86-.4-.94-.22-.98-.08-1v-182.44l.08-1 .24-.98.38-.94.53-.87.65-.78.78-.66.86-.53.93-.4 1-.23 1-.08h1175.9z" stroke="#3a414a" stroke-width=".05" fill="#3a414a"/><path d="M-3946.86-375.12h-.52v-.95h.52z" fill="#3a414a"/><path stroke="#3a414a" stroke-width=".05" fill="#3a414a"/><path d="M-2823.12-397.95l-14.26-4.63 14.26-4.64z" fill="#3a414a"/><path d="M-2822.64-397.3l-16.28-5.28 16.28-5.3zm-13.2-5.28l12.25 3.98v-7.96z" stroke="#3a414a" stroke-width=".05" fill="#3a414a"/><use xlink:href="#U" transform="matrix(1,0,0,1,-3747.0998050431704,-595.3333333333333) translate(0 14.222222222222223)"/><use xlink:href="#B" transform="matrix(1,0,0,1,-3747.0998050431704,-595.3333333333333) translate(19.75308641975309 14.222222222222223)"/><use xlink:href="#V" transform="matrix(1,0,0,1,-3747.0998050431704,-595.3333333333333) translate(77.92592592592594 14.222222222222223)"/><use xlink:href="#W" transform="matrix(1,0,0,1,-3747.0998050431704,-595.3333333333333) translate(139.01234567901236 14.222222222222223)"/><use xlink:href="#X" transform="matrix(1,0,0,1,-3747.0998050431704,-595.3333333333333) translate(194.81481481481484 14.222222222222223)"/><use xlink:href="#Y" transform="matrix(1,0,0,1,-3747.0998050431704,-595.3333333333333) translate(269.67901234567904 14.222222222222223)"/><use xlink:href="#C" transform="matrix(1,0,0,1,-3747.0998050431704,-595.3333333333333) translate(323.8518518518519 14.222222222222223)"/><use xlink:href="#Z" transform="matrix(1,0,0,1,-3747.0998050431704,-595.3333333333333) translate(442.96296296296305 14.222222222222223)"/><use xlink:href="#aa" transform="matrix(1,0,0,1,-3747.0998050431704,-595.3333333333333) translate(492.19753086419763 14.222222222222223)"/><use xlink:href="#ab" transform="matrix(1,0,0,1,-3747.0998050431704,-595.3333333333333) translate(528.641975308642 14.222222222222223)"/><use xlink:href="#ac" transform="matrix(1,0,0,1,-3747.0998050431704,-595.3333333333333) translate(604.5432098765433 14.222222222222223)"/><path d="M-2460-345.64c-33.12 0-60 26.88-60 60 0 33.1 26.88 60 60 60 33.12 0 60-26.9 60-60 0-33.13-26.88-60-60-60zm0 111.83c-28.56 0-51.84-23.28-51.84-51.84 0-28.56 23.28-51.85 51.84-51.85 28.56 0 51.84 23.3 51.84 51.86s-23.28 51.83-51.84 51.83z" stroke="#000" stroke-opacity="0" fill="url(#ad)"/><path d="M-2408.14-285.62c0 28.6-23.22 51.84-51.84 51.84-28.6 0-51.84-23.23-51.84-51.84 0-28.62 23.23-51.84 51.84-51.84 28.62 0 51.84 23.22 51.84 51.84z" stroke="#000" stroke-opacity="0" fill="#fff"/><path d="M-2428.75-297.43c5.05-5.07 5.05-13.28 0-18.35l-22.18-22.3c-5.06-4.94-13.2-4.94-18.26 0l-22.17 22.3c-5.05 5.06-5.05 13.28 0 18.35l18.46 18.8c.7.67 1.05 1.57 1.05 2.58v34.45c0 1.12.42 2.25 1.26 3.04l8.5 8.44c1.13 1.24 2.95 1.24 4.08 0l8.2-8.1 4.78-4.85c.63-.67.63-1.7 0-2.36l-3.44-3.5c-.7-.66-.7-1.9 0-2.58l3.44-3.5c.63-.67.63-1.7 0-2.36l-3.44-3.5c-.7-.67-.7-1.8 0-2.58l3.44-3.5c.63-.66.63-1.68 0-2.35l-4.77-4.83v-1.8zm-31.3-35.12c4 0 7.3 3.26 7.3 7.3 0 3.95-3.3 7.22-7.3 7.22s-7.3-3.27-7.3-7.2c0-4.06 3.3-7.32 7.3-7.32z" stroke="#000" stroke-opacity="0" fill="url(#ae)"/><path d="M-2465.74-241.26c.3.25.63.38 1.03.38.88.03 1.62-.7 1.64-1.6v-28.18c0-.6-.28-1.1-.78-1.4-.3-.2-.6-.3-.96-.26-.86.06-1.5.8-1.44 1.66v28.17c.03.48.2.86.5 1.24zM-2475.8-308.32h32.55c1.3 0 1.97.65 1.97 1.97v.36c0 1.32-.66 1.98-1.97 1.98h-32.54c-1.3 0-1.96-.66-1.96-1.98v-.35c0-1.32.66-1.97 1.97-1.97zM-2475.8-301.37h32.55c1.3 0 1.97.66 1.97 1.98v.36c0 1.32-.66 1.98-1.97 1.98h-32.54c-1.3 0-1.96-.66-1.96-1.98v-.35c0-1.3.66-1.97 1.97-1.97z" stroke="#000" stroke-opacity="0" fill="#ff9300" fill-opacity=".75"/><use xlink:href="#af" transform="matrix(1,0,0,1,-2550,-216.64543711514835) translate(5.574999999999989 14.4)"/><use xlink:href="#ag" transform="matrix(1,0,0,1,-2550,-216.64543711514835) translate(68.57499999999999 14.4)"/><use xlink:href="#ah" transform="matrix(1,0,0,1,-2550,-216.64543711514835) translate(121.52499999999999 14.4)"/><use xlink:href="#ai" transform="matrix(1,0,0,1,-2550,-216.64543711514835) translate(147.475 14.4)"/><use xlink:href="#aj" transform="matrix(1,0,0,1,-2550,-216.64543711514835) translate(48.025 36)"/><use xlink:href="#ak" transform="matrix(1,0,0,1,-2550,-216.64543711514835) translate(102.975 36)"/><path d="M-2838.5-285.64h302.12" stroke="#3a414a" fill="none"/><path d="M-2838.5-285.17h-.5v-.95h.5z" stroke="#3a414a" stroke-width=".05" fill="#3a414a"/><path d="M-2521.62-285.64l-14.26 4.63v-9.28z" stroke="#3a414a" fill="#3a414a"/><use xlink:href="#al" transform="matrix(1,0,0,1,-2811.67639180923,-310.97877044848167) translate(0 14.222222222222223)"/><use xlink:href="#am" transform="matrix(1,0,0,1,-2811.67639180923,-310.97877044848167) translate(19.75308641975309 14.222222222222223)"/><use xlink:href="#an" transform="matrix(1,0,0,1,-2811.67639180923,-310.97877044848167) translate(81.87654320987656 14.222222222222223)"/><use xlink:href="#ao" transform="matrix(1,0,0,1,-2811.67639180923,-310.97877044848167) translate(148.98765432098767 14.222222222222223)"/><path d="M-3756.2-79.3c2.93 0 5.67.52 8.27 1.6 2.54 1.04 4.82 2.48 6.75 4.27 1.88 1.8 3.4 3.9 4.55 6.3 1.13 2.44 1.67 5.03 1.67 7.8 0 2.74-.54 5.33-1.67 7.77-1.14 2.4-2.67 4.5-4.55 6.3-1.93 1.8-4.2 3.23-6.75 4.27-2.6 1.1-5.34 1.6-8.28 1.6h-24.33c-2.94 0-5.68-.5-8.3-1.6-2.53-1.03-4.8-2.46-6.74-4.26-1.87-1.8-3.4-3.9-4.54-6.3-1.15-2.44-1.68-5.03-1.68-7.78 0-2.76.53-5.35 1.67-7.78 1.12-2.4 2.66-4.5 4.53-6.3 1.94-1.8 4.2-3.24 6.75-4.28 2.6-1.08 5.35-1.6 8.3-1.6h3.06v5.7c-2.4 0-4.74.25-6.95.77-2.2.52-4.15 1.36-5.82 2.5-1.67 1.13-3 2.6-4 4.4-1.02 1.8-1.48 4-1.48 6.6 0 1.94.4 3.78 1.2 5.5.8 1.7 1.87 3.23 3.28 4.54 1.4 1.3 3 2.33 4.8 3.08 1.88.76 3.82 1.12 5.9 1.12h24.3c2.08 0 4.02-.36 5.9-1.12 1.8-.75 3.4-1.8 4.8-3.07 1.4-1.3 2.47-2.82 3.28-4.54.8-1.7 1.2-3.55 1.2-5.5 0-2.6-.47-4.8-1.47-6.6-1-1.78-2.35-3.22-4.02-4.38-1.67-1.15-3.6-2-5.82-2.5-2.2-.53-4.54-.77-6.94-.77v-5.7h3.07z" stroke="#000" stroke-opacity="0" stroke-width="3" fill="#7fba00"/><path d="M-3789.66-56.5v-5.7c2.4 0 4.75-.24 6.95-.76s4.14-1.35 5.8-2.5c1.68-1.17 3-2.6 4.02-4.4 1-1.8 1.47-4 1.47-6.58 0-1.96-.4-3.8-1.22-5.5-.8-1.77-1.87-3.24-3.27-4.56-1.4-1.28-3-2.3-4.8-3.07-1.87-.76-3.8-1.12-5.88-1.12h-24.33c-2.08 0-4 .37-5.88 1.13-1.8.76-3.4 1.8-4.82 3.07-1.4 1.32-2.47 2.8-3.27 4.55-.8 1.72-1.2 3.55-1.2 5.5 0 2.6.46 4.8 1.47 6.6 1 1.8 2.34 3.22 4 4.38 1.68 1.16 3.6 2 5.82 2.5 2.2.53 4.54.77 6.95.77v5.7h-3.08c-2.94 0-5.68-.5-8.3-1.6-2.53-1.03-4.8-2.46-6.74-4.26-1.87-1.8-3.4-3.9-4.54-6.3-1.14-2.44-1.67-5.03-1.67-7.78 0-2.76.53-5.35 1.67-7.78 1.13-2.4 2.67-4.5 4.54-6.3 1.94-1.8 4.2-3.24 6.75-4.28 2.6-1.07 5.36-1.6 8.3-1.6h24.32c2.94 0 5.68.53 8.28 1.6 2.54 1.04 4.82 2.48 6.75 4.27 1.87 1.8 3.4 3.9 4.55 6.3 1.13 2.44 1.67 5.03 1.67 7.8 0 2.74-.54 5.33-1.67 7.77-1.14 2.4-2.68 4.5-4.55 6.3-1.93 1.8-4.2 3.23-6.75 4.27-2.6 1.1-5.34 1.6-8.28 1.6h-3.08z" stroke="#000" stroke-opacity="0" stroke-width="3" fill="#59b4d9"/><path d="M-3810.6-57.27h23.44s19.77-.7 20.75-19.47c0 0 .77-16.32-20.1-18.85h-27.3s-14.1 1.77-17.75 16.64c0 0-2.34 14.18 12.34 20.04 0 0 2 1.5 8.6 1.65z" stroke="#000" stroke-opacity="0" stroke-width="0" fill-opacity="0"/><path d="M-3778.28-78.47h19.6s18.97-2.3 22.8 17.9c0 0 2.46 10.94-12.4 18.6 0 0-2.92 1.5-7.14 1.78h-26.36s-17.33-1.37-18.83-17.68c0 0-2.02-20.63 22.32-20.6z" stroke="#000" stroke-opacity="0" stroke-width="0" fill-opacity="0"/><path d="M-3488.55-37a6 6 0 0 1 6-6h121.6a6 6 0 0 1 6 6v74a6 6 0 0 1-6 6h-121.6a6 6 0 0 1-6-6z" stroke="#3a414a" stroke-width="2" fill="#cfe4ff"/><path d="M-3439.37-4.45c7 0 12.78-4.94 12.78-10.96 0-6.1-5.76-10.98-12.77-10.98-7.02 0-12.77 4.88-12.77 10.97 0 6 5.75 10.95 12.77 10.95m.25 4.3c-12.18 0-22.2 8.82-23.3 20.08-.16 1.42.6 2.8 1.93 3.57 6.2 3.3 13.53 5.24 21.38 5.24 7.86 0 15.2-1.93 21.38-5.24 1.4-.78 2.08-2.15 2-3.57-1.17-11.26-11.2-20.08-23.38-20.08m44.5 1.22v-5.65l6.52-3.23v-3.17h-6.52v-4.58l6.78-3.87v-5.8H-3401.38V1.72c-5.93 1.8-10.18 6.6-10.18 12.32 0 7.18 6.84 13.05 15.27 13.05 8.46 0 15.3-5.88 15.3-13.06 0-6.73-6-12.25-13.62-12.96m-1.67 20.2c-4.66 0-8.42-3.22-8.42-7.24 0-4 3.76-7.3 8.43-7.3 4.7 0 8.46 3.3 8.46 7.3 0 4.02-3.77 7.25-8.45 7.25" fill="#e0edff"/><use xlink:href="#ap" transform="matrix(1,0,0,1,-3483.5482037657357,-37.99999999999997) translate(5.858024691358025 42.44444444444444)"/><use xlink:href="#aq" transform="matrix(1,0,0,1,-3483.5482037657357,-37.99999999999997) translate(66.29012345679013 42.44444444444444)"/><path d="M-3150-35.05c0 3.6-2.88 6.52-6.4 6.52h-77.2c-3.52 0-6.4-2.92-6.4-6.52v-54.83c0-3.6 2.88-6.5 6.4-6.5h77.2c3.52 0 6.4 2.9 6.4 6.5v54.83z" stroke="#000" stroke-opacity="0" fill="#fcd116"/><path d="M-3232.28-88.56h74.57v52.2h-74.6.02v-52.2z" stroke="#000" stroke-opacity="0" fill="#fff"/><path d="M-3207.86-48.1c0 5.76-4.6 10.44-10.28 10.44s-10.3-4.68-10.3-10.44c0-5.77 4.62-10.44 10.3-10.44 5.67 0 10.28 4.67 10.28 10.44z" stroke="#000" stroke-opacity="0" fill="#dd5900"/><path d="M-3210.43-48.1c0 4.32-3.45 7.83-7.7 7.83-4.27 0-7.73-3.5-7.73-7.83s3.46-7.84 7.72-7.84 7.7 3.5 7.7 7.84z" stroke="#000" stroke-opacity="0" fill="#ff8c00"/><path d="M-3218.14-40.28c-3 0-5.72-1.17-7.77-3.06l-1.23 23.8 8.87-8.98 9 9.13.12-1.3-1.23-22.64c-2.07 1.9-4.78 3.06-7.77 3.06z" stroke="#000" stroke-opacity="0" fill="#dd5900"/><path d="M-3166.27-50.56c0 .8-.63 1.46-1.44 1.46h-32.3c-.8 0-1.43-.65-1.43-1.46 0-.8.63-1.46 1.44-1.46h32.3c.8 0 1.43.65 1.43 1.46M-3166.27-58.55c0 .8-.63 1.46-1.44 1.46h-32.3c-.8 0-1.43-.64-1.43-1.45 0-.8.63-1.46 1.44-1.46h32.3c.8 0 1.43.65 1.43 1.45M-3166.27-70.3c0 .8-.63 1.47-1.42 1.47h-54.16c-.8 0-1.43-.66-1.43-1.46 0-.8.64-1.45 1.44-1.45h54.17c.8 0 1.43.65 1.43 1.46" stroke="#000" stroke-opacity="0" fill="#7a7a7a"/><path d="M-2910 47.2c0 26.9-31.76 48.5-38.72 52.9-.8.5-1.76.5-2.56 0-6.96-4.4-38.72-26-38.72-52.9V14.8c0-1.4 1.04-2.5 2.4-2.5 24.8-.7 19.04-11.8 37.6-11.8 18.56 0 12.8 11.1 37.6 11.8 1.36 0 2.4 1.1 2.4 2.5z" stroke="#000" stroke-opacity="0" fill="#0078d4"/><path d="M-2913.24 47.45c0 24.64-29.2 44.42-35.58 48.45-.74.46-1.62.46-2.36 0-6.4-4.03-35.58-23.8-35.58-48.45v-29.4c-.22-1.38.66-2.57 1.9-2.85h.38c22.72-.45 17.57-10.53 34.48-10.53 16.98 0 11.76 10.08 34.48 10.53 1.25 0 2.28 1 2.28 2.4z" stroke="#000" stroke-opacity="0" fill="url(#ar)"/><path d="M-2933.95 42.57h-2.26v-8.33c.02-4.12-1.27-7.64-3.96-10.68-.25-.25-.47-.5-.72-.74-5.46-5.24-13.9-4.9-18.93.74-2.7 3.04-4 6.57-3.96 10.68v8.33H-2966.32c-1 .05-1.75.98-1.68 2V66.3c.04 1.02.86 1.85 1.87 1.8h32.25c.97 0 1.8-.83 1.8-1.86V44.58v-.2c-.04-1.03-.86-1.86-1.87-1.8zm-8.76 0h-14.67V34.1c0-2.3.76-4.22 2.3-5.9 2.48-2.88 6.72-3.12 9.48-.57.23.2.4.4.6.58.35.4.6.75.9 1.2.96 1.4 1.4 2.88 1.4 4.65z" stroke="#000" stroke-opacity="0" fill="#ffbd02"/><path d="M-2966.13 42.6h32.2c.47 0 .86.15 1.2.47l-34.6 24.43c-.42-.37-.64-.85-.67-1.42v-21.5c-.07-1 .7-1.9 1.7-1.98h.17z" stroke="#000" stroke-opacity="0" fill="#ffe452"/><path d="M-2933.87 42.6h-32.2c-.47 0-.86.15-1.2.47l34.6 24.43c.42-.35.67-.85.67-1.42v-21.5-.16c-.03-1.05-.88-1.84-1.87-1.82z" stroke="#000" stroke-opacity="0" fill="#ffd400" fill-opacity=".5"/><path d="M-3978.22-10.3c0 26.9-31.76 48.5-38.72 52.9-.8.5-1.76.5-2.56 0-6.96-4.4-38.72-26-38.72-52.9v-32.4c0-1.4 1.04-2.5 2.4-2.5 24.8-.7 19.04-11.8 37.6-11.8 18.56 0 12.8 11.1 37.6 11.8 1.36 0 2.4 1.1 2.4 2.5z" stroke="#000" stroke-opacity="0" fill="#0078d4"/><path d="M-3981.46-10.05c0 24.64-29.2 44.42-35.6 48.45-.72.46-1.6.46-2.34 0-6.4-4.03-35.58-23.8-35.58-48.45v-29.4c-.22-1.38.66-2.57 1.9-2.85h.38c22.72-.45 17.57-10.53 34.48-10.53 16.98 0 11.76 10.08 34.48 10.53 1.25 0 2.28 1 2.28 2.4z" stroke="#000" stroke-opacity="0" fill="url(#as)"/><path d="M-4002.17-14.93h-2.26v-8.33c.03-4.1-1.26-7.64-3.95-10.68-.26-.25-.47-.5-.72-.74-5.46-5.24-13.9-4.9-18.93.74-2.7 3.04-4 6.56-3.95 10.68v8.33h-2.55c-1 .05-1.76.98-1.7 2V8.8c.05 1.02.87 1.85 1.88 1.8h32.25c.97 0 1.8-.83 1.8-1.86v-21.66-.2c-.04-1.03-.86-1.86-1.87-1.8zm-8.76 0h-14.66v-8.48c0-2.3.76-4.22 2.3-5.9 2.5-2.88 6.73-3.12 9.5-.57l.57.58c.36.4.6.75.9 1.2.97 1.4 1.4 2.88 1.4 4.65z" stroke="#000" stroke-opacity="0" fill="#ffbd02"/><path d="M-4034.35-14.9h32.2c.47 0 .86.15 1.2.47l-34.6 24.43c-.42-.37-.64-.85-.67-1.42v-21.5c-.07-1 .7-1.9 1.7-1.98h.17z" stroke="#000" stroke-opacity="0" fill="#ffe452"/><path d="M-4002.1-14.9h-32.2c-.46 0-.85.15-1.2.47l34.6 24.43c.43-.35.68-.85.68-1.42v-21.5-.16c-.04-1.05-.88-1.85-1.87-1.82z" stroke="#000" stroke-opacity="0" fill="#ffd400" fill-opacity=".5"/><path d="M-3816.44-1396a4 4 0 0 1 4-4h272a4 4 0 0 1 4 4v660.2a4 4 0 0 1-4 4h-272a4 4 0 0 1-4-4z" stroke="#adb6c0" fill="#e7ebf0"/><g><use xlink:href="#at" transform="matrix(1,0,0,1,-3796.4423076923076,-1380) translate(0 29.200000000000003)"/><use xlink:href="#au" transform="matrix(1,0,0,1,-3796.4423076923076,-1380) translate(114.33333333333334 29.200000000000003)"/></g><path d="M-3516.44-1396a4 4 0 0 1 4-4h272a4 4 0 0 1 4 4v660.2a4 4 0 0 1-4 4h-272a4 4 0 0 1-4-4z" stroke="#adb6c0" fill="#e7ebf0"/><g><use xlink:href="#av" transform="matrix(1,0,0,1,-3496.4423076923076,-1380) translate(0 29.200000000000003)"/><use xlink:href="#aw" transform="matrix(1,0,0,1,-3496.4423076923076,-1380) translate(53.13333333333333 29.200000000000003)"/></g><path d="M-3216.44-1396a4 4 0 0 1 4-4h272a4 4 0 0 1 4 4v660.2a4 4 0 0 1-4 4h-272a4 4 0 0 1-4-4z" stroke="#adb6c0" fill="#e7ebf0"/><g><use xlink:href="#at" transform="matrix(1,0,0,1,-3196.4423076923076,-1380) translate(0 29.200000000000003)"/><use xlink:href="#ax" transform="matrix(1,0,0,1,-3196.4423076923076,-1380) translate(114.33333333333334 29.200000000000003)"/><use xlink:href="#ay" transform="matrix(1,0,0,1,-3196.4423076923076,-1380) translate(191.53333333333336 29.200000000000003)"/></g><path d="M-3816.44-1396a4 4 0 0 1 4-4h272a4 4 0 0 1 4 4v660.2a4 4 0 0 1-4 4h-272a4 4 0 0 1-4-4z" stroke="#adb6c0" fill="#e7ebf0"/><g><use xlink:href="#at" transform="matrix(1,0,0,1,-3796.4423076923076,-1380) translate(0 29.200000000000003)"/><use xlink:href="#au" transform="matrix(1,0,0,1,-3796.4423076923076,-1380) translate(114.33333333333334 29.200000000000003)"/></g><path d="M-3516.44-1396a4 4 0 0 1 4-4h272a4 4 0 0 1 4 4v660.2a4 4 0 0 1-4 4h-272a4 4 0 0 1-4-4z" stroke="#adb6c0" fill="#e7ebf0"/><g><use xlink:href="#av" transform="matrix(1,0,0,1,-3496.4423076923076,-1380) translate(0 29.200000000000003)"/><use xlink:href="#aw" transform="matrix(1,0,0,1,-3496.4423076923076,-1380) translate(53.13333333333333 29.200000000000003)"/></g><path d="M-3216.44-1396a4 4 0 0 1 4-4h272a4 4 0 0 1 4 4v660.2a4 4 0 0 1-4 4h-272a4 4 0 0 1-4-4z" stroke="#adb6c0" fill="#e7ebf0"/><g><use xlink:href="#at" transform="matrix(1,0,0,1,-3196.4423076923076,-1380) translate(0 29.200000000000003)"/><use xlink:href="#ax" transform="matrix(1,0,0,1,-3196.4423076923076,-1380) translate(114.33333333333334 29.200000000000003)"/><use xlink:href="#ay" transform="matrix(1,0,0,1,-3196.4423076923076,-1380) translate(191.53333333333336 29.200000000000003)"/></g><path d="M-3057.96-746.9c-13.14 10.14-31.98 7.8-42.18-5.34-10.14-13.14-7.8-31.98 5.34-42.18l.3-.18c13.32-9.96 32.16-7.2 42.06 6.06 9.78 13.14 7.32 31.56-5.52 41.64" stroke="#000" stroke-opacity="0" fill="url(#az)"/><path d="M-3084.55-776.9c8.86-8.44 19.28-12.63 31.5-12.67-1.63-2-3.2-3.53-5.26-5.1-6.03.38-11.08 1.55-16.6 3.9-5.73 2.44-10.12 5.5-14.44 9.98 2.07.8 3.6 2.03 4.8 3.9zM-3099.42-764.84c-1.28 3.17-2.16 5.94-2.94 9.26.7 1.2 1.35 2.17 2.2 3.26.64.82 1.24 1.56 1.95 2.3.9-4.43 2.04-8.1 3.82-12.27-1.98-.35-3.6-1.15-5.04-2.54z" stroke="#000" stroke-opacity="0" fill="#fff" fill-opacity=".6"/><path d="M-3096-780.9c-1.3-3.52-2.04-6.66-2.42-10.4-1.56 1.64-2.72 3.2-3.88 5.14.42 3 1.02 5.53 2 8.42 1.17-1.5 2.52-2.5 4.3-3.15z" stroke="#000" stroke-opacity="0" fill="#f2f2f2" fill-opacity=".55"/><path d="M-3083.04-771.8c0 5.33-4.33 9.66-9.66 9.66-5.34 0-9.66-4.33-9.66-9.66s4.33-9.66 9.66-9.66 9.66 4.33 9.66 9.66z" stroke="#000" stroke-opacity="0" fill="url(#aA)"/><path d="M-3078.65-754.13c0-1.77.64-3.26 1.9-4.5-3.43-1.88-6.12-3.85-8.94-6.57-1.45 1.58-3.14 2.52-5.26 2.93 1.68 1.73 3.2 3.07 5.13 4.53 2.4 1.8 4.55 3.13 7.25 4.42-.04-.28-.07-.52-.07-.8zM-3056.35-753.4c-3.46 0-6.4-.33-9.76-1.12v.4c0 1.7-.62 3.16-1.82 4.37 4.2.83 7.83 1.1 12.1.85 1.66-1.5 2.93-2.92 4.22-4.74-1.67.2-3.07.26-4.75.25z" stroke="#000" stroke-opacity="0" fill="#f2f2f2" fill-opacity=".55"/><path d="M-3066.06-754.16c0 3.48-2.83 6.3-6.3 6.3-3.48 0-6.3-2.82-6.3-6.3s2.82-6.3 6.3-6.3c3.47 0 6.3 2.82 6.3 6.3z" stroke="#000" stroke-opacity="0" fill="url(#aB)"/><path d="M-3064.63-770.9c.33-1.45 1.02-2.6 2.17-3.53-6.14-4.48-10.87-8.87-15.78-14.65-2.86-3.34-4.97-6.44-7.08-10.32-1.4.43-2.53.86-3.84 1.48 2.24 4.22 4.5 7.58 7.6 11.26 5.24 6.24 10.34 10.97 16.93 15.76z" stroke="#000" stroke-opacity="0" fill="#f2f2f2" fill-opacity=".7"/><path d="M-3051.36-769.67c0 3.7-3 6.7-6.7 6.7-3.68 0-6.68-3-6.68-6.7s3-6.7 6.7-6.7c3.68 0 6.68 3 6.68 6.7z" stroke="#000" stroke-opacity="0" fill="url(#aC)"/><path d="M-3046.86-765.22l-1.24-.6-1.06-.57h-.2l-.92-.73h-.25l-1.1-.7c-.4 1.35-1.1 2.4-2.25 3.25.42.28.88.53 1.34.78l.28.17 1.24.68 3.03 1.6c.46-1.36.77-2.54 1.03-3.94z" stroke="#000" stroke-opacity="0" fill="#f2f2f2" fill-opacity=".55"/><path d="M-3083.04-771.8c0 5.33-4.33 9.66-9.66 9.66-5.34 0-9.66-4.33-9.66-9.66s4.33-9.66 9.66-9.66 9.66 4.33 9.66 9.66z" stroke="#000" stroke-opacity="0" fill="url(#aD)"/><path d="M-3066.06-754.16c0 3.48-2.83 6.3-6.3 6.3-3.48 0-6.3-2.82-6.3-6.3s2.82-6.3 6.3-6.3c3.47 0 6.3 2.82 6.3 6.3z" stroke="#000" stroke-opacity="0" fill="url(#aE)"/><path d="M-4280-689.93a6 6 0 0 1 6-6h1948a6 6 0 0 1 6 6V514a6 6 0 0 1-6 6h-1948a6 6 0 0 1-6-6z" stroke="#3a414a" stroke-width="2" fill-opacity="0"/><g><use xlink:href="#aF" transform="matrix(1,0,0,1,-4275,-690.9281842681268) translate(861.5123456790124 17.77777777777778)"/><use xlink:href="#aG" transform="matrix(1,0,0,1,-4275,-690.9281842681268) translate(1008.3024691358024 17.77777777777778)"/></g><defs><path d="M197 0v-115H63V0H30v-248h33v105h134v-105h34V0h-34" id="aH"/><path d="M127-220V0H93v-220H8v-28h204v28h-85" id="aI"/><path d="M30-248c87 1 191-15 191 75 0 78-77 80-158 76V0H30v-248zm33 125c57 0 124 11 124-50 0-59-68-47-124-48v98" id="aJ"/><g id="a"><use transform="matrix(0.06172839506172839,0,0,0.06172839506172839,0,0)" xlink:href="#aH"/><use transform="matrix(0.06172839506172839,0,0,0.06172839506172839,15.987654320987653,0)" xlink:href="#aI"/><use transform="matrix(0.06172839506172839,0,0,0.06172839506172839,29.50617283950617,0)" xlink:href="#aI"/><use transform="matrix(0.06172839506172839,0,0,0.06172839506172839,43.02469135802469,0)" xlink:href="#aJ"/></g><path d="M185-189c-5-48-123-54-124 2 14 75 158 14 163 119 3 78-121 87-175 55-17-10-28-26-33-46l33-7c5 56 141 63 141-1 0-78-155-14-162-118-5-82 145-84 179-34 5 7 8 16 11 25" id="aK"/><path d="M100-194c63 0 86 42 84 106H49c0 40 14 67 53 68 26 1 43-12 49-29l28 8c-11 28-37 45-77 45C44 4 14-33 15-96c1-61 26-98 85-98zm52 81c6-60-76-77-97-28-3 7-6 17-6 28h103" id="aL"/><path d="M114-163C36-179 61-72 57 0H25l-1-190h30c1 12-1 29 2 39 6-27 23-49 58-41v29" id="aM"/><path d="M108 0H70L1-190h34L89-25l56-165h34" id="aN"/><g id="b"><use transform="matrix(0.06172839506172839,0,0,0.06172839506172839,0,0)" xlink:href="#aK"/><use transform="matrix(0.06172839506172839,0,0,0.06172839506172839,14.814814814814813,0)" xlink:href="#aL"/><use transform="matrix(0.06172839506172839,0,0,0.06172839506172839,27.160493827160494,0)" xlink:href="#aM"/><use transform="matrix(0.06172839506172839,0,0,0.06172839506172839,34.50617283950617,0)" xlink:href="#aN"/><use transform="matrix(0.06172839506172839,0,0,0.06172839506172839,45.61728395061728,0)" xlink:href="#aL"/><use transform="matrix(0.06172839506172839,0,0,0.06172839506172839,57.962962962962955,0)" xlink:href="#aM"/></g><linearGradient gradientUnits="userSpaceOnUse" id="c" x1="-4018.22" y1="438.52" x2="-4018.22" y2="134.45"><stop offset="0%" stop-color="#0078d4"/><stop offset="14%" stop-color="#077bd6"/><stop offset="34%" stop-color="#1a83db"/><stop offset="59%" stop-color="#3990e4"/><stop offset="82%" stop-color="#5ea0ef"/></linearGradient><linearGradient gradientUnits="userSpaceOnUse" id="d" x1="-4017.08" y1="379.83" x2="-4017.08" y2="179.93"><stop offset="0%" stop-color="#949494"/><stop offset="31%" stop-color="#b9b9b9"/><stop offset="77%" stop-color="#ececec"/><stop offset="100%" stop-color="#fff"/></linearGradient><path d="M30 0v-248h33v221h125V0H30" id="aO"/><path d="M24-231v-30h32v30H24zM24 0v-190h32V0H24" id="aP"/><path d="M135-143c-3-34-86-38-87 0 15 53 115 12 119 90S17 21 10-45l28-5c4 36 97 45 98 0-10-56-113-15-118-90-4-57 82-63 122-42 12 7 21 19 24 35" id="aQ"/><path d="M59-47c-2 24 18 29 38 22v24C64 9 27 4 27-40v-127H5v-23h24l9-43h21v43h35v23H59v120" id="aR"/><path d="M117-194c89-4 53 116 60 194h-32v-121c0-31-8-49-39-48C34-167 62-67 57 0H25l-1-190h30c1 10-1 24 2 32 11-22 29-35 61-36" id="aS"/><g id="e"><use transform="matrix(0.06172839506172839,0,0,0.06172839506172839,0,0)" xlink:href="#aO"/><use transform="matrix(0.06172839506172839,0,0,0.06172839506172839,12.345679012345679,0)" xlink:href="#aP"/><use transform="matrix(0.06172839506172839,0,0,0.06172839506172839,17.22222222222222,0)" xlink:href="#aQ"/><use transform="matrix(0.06172839506172839,0,0,0.06172839506172839,28.333333333333332,0)" xlink:href="#aR"/><use transform="matrix(0.06172839506172839,0,0,0.06172839506172839,34.50617283950617,0)" xlink:href="#aL"/><use transform="matrix(0.06172839506172839,0,0,0.06172839506172839,46.85185185185185,0)" xlink:href="#aS"/><use transform="matrix(0.06172839506172839,0,0,0.06172839506172839,59.197530864197525,0)" xlink:href="#aQ"/></g><path d="M100-194c62-1 85 37 85 99 1 63-27 99-86 99S16-35 15-95c0-66 28-99 85-99zM99-20c44 1 53-31 53-75 0-43-8-75-51-75s-53 32-53 75 10 74 51 75" id="aT"/><g id="f"><use transform="matrix(0.06172839506172839,0,0,0.06172839506172839,0,0)" xlink:href="#aR"/><use transform="matrix(0.06172839506172839,0,0,0.06172839506172839,6.172839506172839,0)" xlink:href="#aT"/></g><path d="M233-177c-1 41-23 64-60 70L243 0h-38l-65-103H63V0H30v-248c88 3 205-21 203 71zM63-129c60-2 137 13 137-47 0-61-80-42-137-45v92" id="aU"/><path d="M85-194c31 0 48 13 60 33l-1-100h32l1 261h-30c-2-10 0-23-3-31C134-8 116 4 85 4 32 4 16-35 15-94c0-66 23-100 70-100zm9 24c-40 0-46 34-46 75 0 40 6 74 45 74 42 0 51-32 51-76 0-42-9-74-50-73" id="aV"/><path d="M96-169c-40 0-48 33-48 73s9 75 48 75c24 0 41-14 43-38l32 2c-6 37-31 61-74 61-59 0-76-41-82-99-10-93 101-131 147-64 4 7 5 14 7 22l-32 3c-4-21-16-35-41-35" id="aW"/><g id="g"><use transform="matrix(0.06172839506172839,0,0,0.06172839506172839,0,0)" xlink:href="#aU"/><use transform="matrix(0.06172839506172839,0,0,0.06172839506172839,15.987654320987653,0)" xlink:href="#aL"/><use transform="matrix(0.06172839506172839,0,0,0.06172839506172839,28.333333333333332,0)" xlink:href="#aV"/><use transform="matrix(0.06172839506172839,0,0,0.06172839506172839,40.67901234567901,0)" xlink:href="#aP"/><use transform="matrix(0.06172839506172839,0,0,0.06172839506172839,45.55555555555556,0)" xlink:href="#aM"/><use transform="matrix(0.06172839506172839,0,0,0.06172839506172839,52.901234567901234,0)" xlink:href="#aL"/><use transform="matrix(0.06172839506172839,0,0,0.06172839506172839,65.24691358024691,0)" xlink:href="#aW"/><use transform="matrix(0.06172839506172839,0,0,0.06172839506172839,76.35802469135803,0)" xlink:href="#aR"/></g><path d="M232-93c-1 65-40 97-104 97C67 4 28-28 28-90v-158h33c8 89-33 224 67 224 102 0 64-133 71-224h33v155" id="aX"/><path d="M33 0v-248h34V0H33" id="aY"/><g id="h"><use transform="matrix(0.06172839506172839,0,0,0.06172839506172839,0,0)" xlink:href="#aX"/><use transform="matrix(0.06172839506172839,0,0,0.06172839506172839,15.987654320987653,0)" xlink:href="#aU"/><use transform="matrix(0.06172839506172839,0,0,0.06172839506172839,31.975308641975307,0)" xlink:href="#aY"/></g><linearGradient gradientUnits="userSpaceOnUse" id="i" x1="-3421.08" y1="-460" x2="-3421.08" y2="-380.06"><stop offset="23%" stop-color="#5ea0ef"/><stop offset="32%" stop-color="#5b9fee"/><stop offset="48%" stop-color="#509aeb"/><stop offset="57%" stop-color="#3f92e6"/><stop offset="75%" stop-color="#2688df"/><stop offset="93%" stop-color="#127fd9"/></linearGradient><linearGradient gradientUnits="userSpaceOnUse" id="j" x1="-3421.02" y1="-459.95" x2="-3421.02" y2="-379.95"><stop offset="2%" stop-color="#5ea0ef"/><stop offset="14%" stop-color="#5b9fee"/><stop offset="23%" stop-color="#5b9fee"/><stop offset="34%" stop-color="#509aeb"/><stop offset="44%" stop-color="#3f92e6"/><stop offset="63%" stop-color="#2688df"/><stop offset="93%" stop-color="#127fd9"/></linearGradient><path d="M240 0l2-218c-23 76-54 145-80 218h-23L58-218 59 0H30v-248h44l77 211c21-75 51-140 76-211h43V0h-30" id="aZ"/><path d="M101-234c-31-9-42 10-38 44h38v23H63V0H32v-167H5v-23h27c-7-52 17-82 69-68v24" id="ba"/><g id="k"><use transform="matrix(0.06172839506172839,0,0,0.06172839506172839,0,0)" xlink:href="#aZ"/><use transform="matrix(0.06172839506172839,0,0,0.06172839506172839,18.456790123456788,0)" xlink:href="#aP"/><use transform="matrix(0.06172839506172839,0,0,0.06172839506172839,23.33333333333333,0)" xlink:href="#aW"/><use transform="matrix(0.06172839506172839,0,0,0.06172839506172839,34.44444444444444,0)" xlink:href="#aM"/><use transform="matrix(0.06172839506172839,0,0,0.06172839506172839,41.79012345679012,0)" xlink:href="#aT"/><use transform="matrix(0.06172839506172839,0,0,0.06172839506172839,54.1358024691358,0)" xlink:href="#aQ"/><use transform="matrix(0.06172839506172839,0,0,0.06172839506172839,65.24691358024691,0)" xlink:href="#aT"/><use transform="matrix(0.06172839506172839,0,0,0.06172839506172839,77.5925925925926,0)" xlink:href="#ba"/><use transform="matrix(0.06172839506172839,0,0,0.06172839506172839,83.76543209876543,0)" xlink:href="#aR"/></g><g id="l"><use transform="matrix(0.06172839506172839,0,0,0.06172839506172839,0,0)" xlink:href="#aK"/><use transform="matrix(0.06172839506172839,0,0,0.06172839506172839,14.814814814814813,0)" xlink:href="#aL"/><use transform="matrix(0.06172839506172839,0,0,0.06172839506172839,27.160493827160494,0)" xlink:href="#aM"/><use transform="matrix(0.06172839506172839,0,0,0.06172839506172839,34.50617283950617,0)" xlink:href="#aN"/><use transform="matrix(0.06172839506172839,0,0,0.06172839506172839,45.61728395061728,0)" xlink:href="#aP"/><use transform="matrix(0.06172839506172839,0,0,0.06172839506172839,50.49382716049382,0)" xlink:href="#aW"/><use transform="matrix(0.06172839506172839,0,0,0.06172839506172839,61.60493827160494,0)" xlink:href="#aL"/><use transform="matrix(0.06172839506172839,0,0,0.06172839506172839,73.95061728395062,0)" xlink:href="#aQ"/></g><linearGradient gradientUnits="userSpaceOnUse" id="m" x1="-3030" y1="-155.63" x2="-3030" y2="-490.1"><stop offset="0%" stop-color="#0078d4"/><stop offset="14%" stop-color="#077bd6"/><stop offset="34%" stop-color="#1a83db"/><stop offset="59%" stop-color="#3990e4"/><stop offset="82%" stop-color="#5ea0ef"/></linearGradient><linearGradient gradientUnits="userSpaceOnUse" id="n" x1="-3028.86" y1="-220.19" x2="-3028.86" y2="-440.08"><stop offset="0%" stop-color="#949494"/><stop offset="31%" stop-color="#b9b9b9"/><stop offset="77%" stop-color="#ececec"/><stop offset="100%" stop-color="#fff"/></linearGradient><path d="M128-127c34 4 56 21 59 58 7 91-148 94-172 28-4-9-6-17-7-26l51-5c1 24 16 35 40 36 23 0 39-12 38-36-1-31-31-36-65-34v-40c32 2 59-3 59-33 0-20-13-33-34-33s-33 13-35 32l-50-3c6-44 37-68 86-68 50 0 83 20 83 66 0 35-22 52-53 58" id="bb"/><path d="M24 0v-54h51V0H24" id="bc"/><g id="o"><use transform="matrix(0.04938271604938272,0,0,0.04938271604938272,0,0)" xlink:href="#bb"/><use transform="matrix(0.04938271604938272,0,0,0.04938271604938272,9.876543209876544,0)" xlink:href="#bc"/></g><path d="M140-251c80 0 125 45 125 126S219 4 139 4C58 4 15-44 15-125s44-126 125-126zm-1 214c52 0 73-35 73-88 0-50-21-86-72-86-52 0-73 35-73 86s22 88 72 88" id="bd"/><path d="M135-194c53 0 70 44 70 98 0 56-19 98-73 100-31 1-45-17-59-34 3 33 2 69 2 105H25l-1-265h48c2 10 0 23 3 31 11-24 29-35 60-35zM114-30c33 0 39-31 40-66 0-38-9-64-40-64-56 0-55 130 0 130" id="be"/><path d="M185-48c-13 30-37 53-82 52C43 2 14-33 14-96s30-98 90-98c62 0 83 45 84 108H66c0 31 8 55 39 56 18 0 30-7 34-22zm-45-69c5-46-57-63-70-21-2 6-4 13-4 21h74" id="bf"/><path d="M135-194c87-1 58 113 63 194h-50c-7-57 23-157-34-157-59 0-34 97-39 157H25l-1-190h47c2 12-1 28 3 38 12-26 28-41 61-42" id="bg"/><g id="p"><use transform="matrix(0.04938271604938272,0,0,0.04938271604938272,0,0)" xlink:href="#bd"/><use transform="matrix(0.04938271604938272,0,0,0.04938271604938272,13.827160493827162,0)" xlink:href="#be"/><use transform="matrix(0.04938271604938272,0,0,0.04938271604938272,24.641975308641975,0)" xlink:href="#bf"/><use transform="matrix(0.04938271604938272,0,0,0.04938271604938272,34.51851851851852,0)" xlink:href="#bg"/></g><path d="M199 0l-22-63H83L61 0H9l90-248h61L250 0h-51zm-33-102l-36-108c-10 38-24 72-36 108h72" id="bh"/><path d="M85 4C-2 5 27-109 22-190h50c7 57-23 150 33 157 60-5 35-97 40-157h50l1 190h-47c-2-12 1-28-3-38-12 25-28 42-61 42" id="bi"/><path d="M115-3C79 11 28 4 28-45v-112H4v-33h27l15-45h31v45h36v33H77v99c-1 23 16 31 38 25v30" id="bj"/><path d="M114-157C55-157 80-60 75 0H25v-261h50l-1 109c12-26 28-41 61-42 86-1 58 113 63 194h-50c-7-57 23-157-34-157" id="bk"/><path d="M110-194c64 0 96 36 96 99 0 64-35 99-97 99-61 0-95-36-95-99 0-62 34-99 96-99zm-1 164c35 0 45-28 45-65 0-40-10-65-43-65-34 0-45 26-45 65 0 36 10 65 43 65" id="bl"/><path d="M135-150c-39-12-60 13-60 57V0H25l-1-190h47c2 13-1 29 3 40 6-28 27-53 61-41v41" id="bm"/><path d="M25-224v-37h50v37H25zM25 0v-190h50V0H25" id="bn"/><path d="M12 0v-35l95-120H19v-35h142v35L67-36h103V0H12" id="bo"/><path d="M133-34C117-15 103 5 69 4 32 3 11-16 11-54c-1-60 55-63 116-61 1-26-3-47-28-47-18 1-26 9-28 27l-52-2c7-38 36-58 82-57s74 22 75 68l1 82c-1 14 12 18 25 15v27c-30 8-71 5-69-32zm-48 3c29 0 43-24 42-57-32 0-66-3-65 30 0 17 8 27 23 27" id="bp"/><g id="q"><use transform="matrix(0.04938271604938272,0,0,0.04938271604938272,0,0)" xlink:href="#bh"/><use transform="matrix(0.04938271604938272,0,0,0.04938271604938272,12.790123456790125,0)" xlink:href="#bi"/><use transform="matrix(0.04938271604938272,0,0,0.04938271604938272,23.60493827160494,0)" xlink:href="#bj"/><use transform="matrix(0.04938271604938272,0,0,0.04938271604938272,29.481481481481485,0)" xlink:href="#bk"/><use transform="matrix(0.04938271604938272,0,0,0.04938271604938272,40.2962962962963,0)" xlink:href="#bl"/><use transform="matrix(0.04938271604938272,0,0,0.04938271604938272,51.111111111111114,0)" xlink:href="#bm"/><use transform="matrix(0.04938271604938272,0,0,0.04938271604938272,58.0246913580247,0)" xlink:href="#bn"/><use transform="matrix(0.04938271604938272,0,0,0.04938271604938272,62.96296296296297,0)" xlink:href="#bo"/><use transform="matrix(0.04938271604938272,0,0,0.04938271604938272,71.85185185185186,0)" xlink:href="#bp"/><use transform="matrix(0.04938271604938272,0,0,0.04938271604938272,81.7283950617284,0)" xlink:href="#bj"/><use transform="matrix(0.04938271604938272,0,0,0.04938271604938272,87.60493827160495,0)" xlink:href="#bn"/><use transform="matrix(0.04938271604938272,0,0,0.04938271604938272,92.54320987654322,0)" xlink:href="#bl"/><use transform="matrix(0.04938271604938272,0,0,0.04938271604938272,103.35802469135804,0)" xlink:href="#bg"/></g><path d="M238-95c0 69-44 99-111 99C63 4 22-25 22-93v-155h51v151c-1 38 19 59 55 60 90 1 49-130 58-211h52v153" id="bq"/><path d="M240-174c0 40-23 61-54 70L253 0h-59l-57-94H76V0H24v-248c93 4 217-23 216 74zM76-134c48-2 112 12 112-38 0-48-66-32-112-35v73" id="br"/><path d="M24 0v-248h52v208h133V0H24" id="bs"/><g id="r"><use transform="matrix(0.04938271604938272,0,0,0.04938271604938272,0,0)" xlink:href="#bq"/><use transform="matrix(0.04938271604938272,0,0,0.04938271604938272,12.790123456790125,0)" xlink:href="#br"/><use transform="matrix(0.04938271604938272,0,0,0.04938271604938272,25.58024691358025,0)" xlink:href="#bs"/></g><path d="M205 0l-28-72H64L36 0H1l101-248h38L239 0h-34zm-38-99l-47-123c-12 45-31 82-46 123h93" id="bt"/><g id="s"><use transform="matrix(0.06172839506172839,0,0,0.06172839506172839,0,0)" xlink:href="#aZ"/><use transform="matrix(0.06172839506172839,0,0,0.06172839506172839,18.456790123456788,0)" xlink:href="#aK"/><use transform="matrix(0.06172839506172839,0,0,0.06172839506172839,33.2716049382716,0)" xlink:href="#bt"/><use transform="matrix(0.06172839506172839,0,0,0.06172839506172839,48.08641975308642,0)" xlink:href="#aO"/></g><path d="M84 4C-5 8 30-112 23-190h32v120c0 31 7 50 39 49 72-2 45-101 50-169h31l1 190h-30c-1-10 1-25-2-33-11 22-28 36-60 37" id="bu"/><path d="M115-194c53 0 69 39 70 98 0 66-23 100-70 100C84 3 66-7 56-30L54 0H23l1-261h32v101c10-23 28-34 59-34zm-8 174c40 0 45-34 45-75 0-40-5-75-45-74-42 0-51 32-51 76 0 43 10 73 51 73" id="bv"/><path d="M24 0v-261h32V0H24" id="bw"/><path d="M212-179c-10-28-35-45-73-45-59 0-87 40-87 99 0 60 29 101 89 101 43 0 62-24 78-52l27 14C228-24 195 4 139 4 59 4 22-46 18-125c-6-104 99-153 187-111 19 9 31 26 39 46" id="bx"/><path d="M115-194c55 1 70 41 70 98S169 2 115 4C84 4 66-9 55-30l1 105H24l-1-265h31l2 30c10-21 28-34 59-34zm-8 174c40 0 45-34 45-75s-6-73-45-74c-42 0-51 32-51 76 0 43 10 73 51 73" id="by"/><path d="M141-36C126-15 110 5 73 4 37 3 15-17 15-53c-1-64 63-63 125-63 3-35-9-54-41-54-24 1-41 7-42 31l-33-3c5-37 33-52 76-52 45 0 72 20 72 64v82c-1 20 7 32 28 27v20c-31 9-61-2-59-35zM48-53c0 20 12 33 32 33 41-3 63-29 60-74-43 2-92-5-92 41" id="bz"/><g id="t"><use transform="matrix(0.06172839506172839,0,0,0.06172839506172839,0,0)" xlink:href="#aJ"/><use transform="matrix(0.06172839506172839,0,0,0.06172839506172839,14.814814814814813,0)" xlink:href="#bu"/><use transform="matrix(0.06172839506172839,0,0,0.06172839506172839,27.160493827160494,0)" xlink:href="#bv"/><use transform="matrix(0.06172839506172839,0,0,0.06172839506172839,39.50617283950617,0)" xlink:href="#bw"/><use transform="matrix(0.06172839506172839,0,0,0.06172839506172839,44.382716049382715,0)" xlink:href="#aP"/><use transform="matrix(0.06172839506172839,0,0,0.06172839506172839,49.25925925925926,0)" xlink:href="#aW"/><use transform="matrix(0.06172839506172839,0,0,0.06172839506172839,60.37037037037037,0)" xlink:href="#bx"/><use transform="matrix(0.06172839506172839,0,0,0.06172839506172839,76.35802469135803,0)" xlink:href="#bw"/><use transform="matrix(0.06172839506172839,0,0,0.06172839506172839,81.23456790123457,0)" xlink:href="#aP"/><use transform="matrix(0.06172839506172839,0,0,0.06172839506172839,86.11111111111111,0)" xlink:href="#aL"/><use transform="matrix(0.06172839506172839,0,0,0.06172839506172839,98.4567901234568,0)" xlink:href="#aS"/><use transform="matrix(0.06172839506172839,0,0,0.06172839506172839,110.80246913580248,0)" xlink:href="#aR"/><use transform="matrix(0.06172839506172839,0,0,0.06172839506172839,116.97530864197532,0)" xlink:href="#bt"/><use transform="matrix(0.06172839506172839,0,0,0.06172839506172839,131.79012345679013,0)" xlink:href="#by"/><use transform="matrix(0.06172839506172839,0,0,0.06172839506172839,144.1358024691358,0)" xlink:href="#by"/><use transform="matrix(0.06172839506172839,0,0,0.06172839506172839,156.48148148148147,0)" xlink:href="#bw"/><use transform="matrix(0.06172839506172839,0,0,0.06172839506172839,161.358024691358,0)" xlink:href="#aP"/><use transform="matrix(0.06172839506172839,0,0,0.06172839506172839,166.23456790123453,0)" xlink:href="#aW"/><use transform="matrix(0.06172839506172839,0,0,0.06172839506172839,177.34567901234564,0)" xlink:href="#bz"/><use transform="matrix(0.06172839506172839,0,0,0.06172839506172839,189.6913580246913,0)" xlink:href="#aR"/><use transform="matrix(0.06172839506172839,0,0,0.06172839506172839,195.86419753086415,0)" xlink:href="#aP"/><use transform="matrix(0.06172839506172839,0,0,0.06172839506172839,200.74074074074068,0)" xlink:href="#aT"/><use transform="matrix(0.06172839506172839,0,0,0.06172839506172839,213.08641975308635,0)" xlink:href="#aS"/></g><linearGradient gradientUnits="userSpaceOnUse" id="u" x1="-4166.49" y1="-329.03" x2="-3568.21" y2="-330"><stop offset="0%" stop-color="#005ba1"/><stop offset="36.6%" stop-color="#004e8f"/><stop offset="100%" stop-color="#003067"/></linearGradient><linearGradient gradientUnits="userSpaceOnUse" id="v" x1="-3410.14" y1="-335.59" x2="-4156.42" y2="-327.46"><stop offset="0%" stop-color="#005ba1"/><stop offset="45.1%" stop-color="#004685"/><stop offset="100%" stop-color="#003067"/></linearGradient><linearGradient gradientUnits="userSpaceOnUse" id="w" x1="-3820.84" y1="-217.46" x2="-3746.01" y2="-443.34"><stop offset="26%" stop-color="#50e6ff"/><stop offset="42%" stop-color="#79eaff"/><stop offset="58%" stop-color="#99edff"/><stop offset="73.3%" stop-color="#b0efff"/><stop offset="87.6%" stop-color="#bef1ff"/><stop offset="100%" stop-color="#c3f1ff"/></linearGradient><path fill="#333" d="M23 0v-37h61v-169l-59 37v-38l62-41h46v211h57V0H23" id="bA"/><path fill="#333" d="M24 0v-54h51V0H24" id="bB"/><path fill="#333" d="M240-174c0 40-23 61-54 70L253 0h-59l-57-94H76V0H24v-248c93 4 217-23 216 74zM76-134c48-2 112 12 112-38 0-48-66-32-112-35v73" id="bC"/><path fill="#333" d="M185-48c-13 30-37 53-82 52C43 2 14-33 14-96s30-98 90-98c62 0 83 45 84 108H66c0 31 8 55 39 56 18 0 30-7 34-22zm-45-69c5-46-57-63-70-21-2 6-4 13-4 21h74" id="bD"/><path fill="#333" d="M84 4C32 4 15-41 15-95c0-55 18-99 73-99 29 0 47 12 58 34l2-30h48l-1 265h-49V-32C136-9 114 4 84 4zm21-34c32 0 41-29 41-66 0-36-9-64-40-64-33 0-39 30-40 65 0 43 13 65 39 65" id="bE"/><path fill="#333" d="M85 4C-2 5 27-109 22-190h50c7 57-23 150 33 157 60-5 35-97 40-157h50l1 190h-47c-2-12 1-28-3-38-12 25-28 42-61 42" id="bF"/><path fill="#333" d="M137-138c1-29-70-34-71-4 15 46 118 7 119 86 1 83-164 76-172 9l43-7c4 19 20 25 44 25 33 8 57-30 24-41C81-84 22-81 20-136c-2-80 154-74 161-7" id="bG"/><path fill="#333" d="M115-3C79 11 28 4 28-45v-112H4v-33h27l15-45h31v45h36v33H77v99c-1 23 16 31 38 25v30" id="bH"/><g id="x"><use transform="matrix(0.04938271604938272,0,0,0.04938271604938272,0,0)" xlink:href="#bA"/><use transform="matrix(0.04938271604938272,0,0,0.04938271604938272,9.876543209876544,0)" xlink:href="#bB"/><use transform="matrix(0.04938271604938272,0,0,0.04938271604938272,14.814814814814817,0)" xlink:href="#bC"/><use transform="matrix(0.04938271604938272,0,0,0.04938271604938272,27.604938271604947,0)" xlink:href="#bD"/><use transform="matrix(0.04938271604938272,0,0,0.04938271604938272,37.48148148148149,0)" xlink:href="#bE"/><use transform="matrix(0.04938271604938272,0,0,0.04938271604938272,48.296296296296305,0)" xlink:href="#bF"/><use transform="matrix(0.04938271604938272,0,0,0.04938271604938272,59.111111111111114,0)" xlink:href="#bD"/><use transform="matrix(0.04938271604938272,0,0,0.04938271604938272,68.98765432098767,0)" xlink:href="#bG"/><use transform="matrix(0.04938271604938272,0,0,0.04938271604938272,78.86419753086422,0)" xlink:href="#bH"/></g><path fill="#333" d="M199 0l-22-63H83L61 0H9l90-248h61L250 0h-51zm-33-102l-36-108c-10 38-24 72-36 108h72" id="bI"/><path fill="#333" d="M114-157C55-157 80-60 75 0H25v-261h50l-1 109c12-26 28-41 61-42 86-1 58 113 63 194h-50c-7-57 23-157-34-157" id="bJ"/><path fill="#333" d="M110-194c64 0 96 36 96 99 0 64-35 99-97 99-61 0-95-36-95-99 0-62 34-99 96-99zm-1 164c35 0 45-28 45-65 0-40-10-65-43-65-34 0-45 26-45 65 0 36 10 65 43 65" id="bK"/><path fill="#333" d="M135-150c-39-12-60 13-60 57V0H25l-1-190h47c2 13-1 29 3 40 6-28 27-53 61-41v41" id="bL"/><path fill="#333" d="M25-224v-37h50v37H25zM25 0v-190h50V0H25" id="bM"/><path fill="#333" d="M12 0v-35l95-120H19v-35h142v35L67-36h103V0H12" id="bN"/><path fill="#333" d="M133-34C117-15 103 5 69 4 32 3 11-16 11-54c-1-60 55-63 116-61 1-26-3-47-28-47-18 1-26 9-28 27l-52-2c7-38 36-58 82-57s74 22 75 68l1 82c-1 14 12 18 25 15v27c-30 8-71 5-69-32zm-48 3c29 0 43-24 42-57-32 0-66-3-65 30 0 17 8 27 23 27" id="bO"/><path fill="#333" d="M135-194c87-1 58 113 63 194h-50c-7-57 23-157-34-157-59 0-34 97-39 157H25l-1-190h47c2 12-1 28 3 38 12-26 28-41 61-42" id="bP"/><g id="y"><use transform="matrix(0.04938271604938272,0,0,0.04938271604938272,0,0)" xlink:href="#bI"/><use transform="matrix(0.04938271604938272,0,0,0.04938271604938272,12.790123456790125,0)" xlink:href="#bF"/><use transform="matrix(0.04938271604938272,0,0,0.04938271604938272,23.60493827160494,0)" xlink:href="#bH"/><use transform="matrix(0.04938271604938272,0,0,0.04938271604938272,29.481481481481485,0)" xlink:href="#bJ"/><use transform="matrix(0.04938271604938272,0,0,0.04938271604938272,40.2962962962963,0)" xlink:href="#bK"/><use transform="matrix(0.04938271604938272,0,0,0.04938271604938272,51.111111111111114,0)" xlink:href="#bL"/><use transform="matrix(0.04938271604938272,0,0,0.04938271604938272,58.0246913580247,0)" xlink:href="#bM"/><use transform="matrix(0.04938271604938272,0,0,0.04938271604938272,62.96296296296297,0)" xlink:href="#bN"/><use transform="matrix(0.04938271604938272,0,0,0.04938271604938272,71.85185185185186,0)" xlink:href="#bO"/><use transform="matrix(0.04938271604938272,0,0,0.04938271604938272,81.7283950617284,0)" xlink:href="#bH"/><use transform="matrix(0.04938271604938272,0,0,0.04938271604938272,87.60493827160495,0)" xlink:href="#bM"/><use transform="matrix(0.04938271604938272,0,0,0.04938271604938272,92.54320987654322,0)" xlink:href="#bK"/><use transform="matrix(0.04938271604938272,0,0,0.04938271604938272,103.35802469135804,0)" xlink:href="#bP"/></g><path fill="#333" d="M238-95c0 69-44 99-111 99C63 4 22-25 22-93v-155h51v151c-1 38 19 59 55 60 90 1 49-130 58-211h52v153" id="bQ"/><path fill="#333" d="M24 0v-248h52v208h133V0H24" id="bR"/><g id="z"><use transform="matrix(0.04938271604938272,0,0,0.04938271604938272,0,0)" xlink:href="#bQ"/><use transform="matrix(0.04938271604938272,0,0,0.04938271604938272,12.790123456790125,0)" xlink:href="#bC"/><use transform="matrix(0.04938271604938272,0,0,0.04938271604938272,25.58024691358025,0)" xlink:href="#bR"/></g><path fill="#333" d="M182-182c0 78-84 86-111 141h115V0H12c-6-101 99-100 120-180 1-22-12-31-33-32-23 0-32 14-35 34l-49-3c5-45 32-70 84-70 51 0 83 22 83 69" id="bS"/><g id="A"><use transform="matrix(0.04938271604938272,0,0,0.04938271604938272,0,0)" xlink:href="#bS"/><use transform="matrix(0.04938271604938272,0,0,0.04938271604938272,9.876543209876544,0)" xlink:href="#bB"/></g><path fill="#333" d="M169-182c-1-43-94-46-97-3 18 66 151 10 154 114 3 95-165 93-204 36-6-8-10-19-12-30l50-8c3 46 112 56 116 5-17-69-150-10-154-114-4-87 153-88 188-35 5 8 8 18 10 28" id="bT"/><path fill="#333" d="M88-194c31-1 46 15 58 34l-1-101h50l1 261h-48c-2-10 0-23-3-31C134-8 116 4 84 4 32 4 16-41 15-95c0-56 19-97 73-99zm17 164c33 0 40-30 41-66 1-37-9-64-41-64s-38 30-39 65c0 43 13 65 39 65" id="bU"/><g id="B"><use transform="matrix(0.04938271604938272,0,0,0.04938271604938272,0,0)" xlink:href="#bT"/><use transform="matrix(0.04938271604938272,0,0,0.04938271604938272,11.851851851851853,0)" xlink:href="#bD"/><use transform="matrix(0.04938271604938272,0,0,0.04938271604938272,21.7283950617284,0)" xlink:href="#bP"/><use transform="matrix(0.04938271604938272,0,0,0.04938271604938272,32.543209876543216,0)" xlink:href="#bU"/><use transform="matrix(0.04938271604938272,0,0,0.04938271604938272,43.35802469135803,0)" xlink:href="#bG"/></g><g id="C"><use transform="matrix(0.04938271604938272,0,0,0.04938271604938272,0,0)" xlink:href="#bI"/><use transform="matrix(0.04938271604938272,0,0,0.04938271604938272,12.790123456790125,0)" xlink:href="#bF"/><use transform="matrix(0.04938271604938272,0,0,0.04938271604938272,23.60493827160494,0)" xlink:href="#bH"/><use transform="matrix(0.04938271604938272,0,0,0.04938271604938272,29.481481481481485,0)" xlink:href="#bJ"/><use transform="matrix(0.04938271604938272,0,0,0.04938271604938272,40.2962962962963,0)" xlink:href="#bK"/><use transform="matrix(0.04938271604938272,0,0,0.04938271604938272,51.111111111111114,0)" xlink:href="#bL"/><use transform="matrix(0.04938271604938272,0,0,0.04938271604938272,58.0246913580247,0)" xlink:href="#bM"/><use transform="matrix(0.04938271604938272,0,0,0.04938271604938272,62.96296296296297,0)" xlink:href="#bN"/><use transform="matrix(0.04938271604938272,0,0,0.04938271604938272,71.85185185185186,0)" xlink:href="#bO"/><use transform="matrix(0.04938271604938272,0,0,0.04938271604938272,81.7283950617284,0)" xlink:href="#bH"/><use transform="matrix(0.04938271604938272,0,0,0.04938271604938272,87.60493827160495,0)" xlink:href="#bM"/><use transform="matrix(0.04938271604938272,0,0,0.04938271604938272,92.54320987654322,0)" xlink:href="#bK"/><use transform="matrix(0.04938271604938272,0,0,0.04938271604938272,103.35802469135804,0)" xlink:href="#bP"/></g><g id="D"><use transform="matrix(0.04938271604938272,0,0,0.04938271604938272,0,0)" xlink:href="#bQ"/><use transform="matrix(0.04938271604938272,0,0,0.04938271604938272,12.790123456790125,0)" xlink:href="#bC"/><use transform="matrix(0.04938271604938272,0,0,0.04938271604938272,25.58024691358025,0)" xlink:href="#bR"/></g><path fill="#333" d="M165-50V0h-47v-50H5v-38l105-160h55v161h33v37h-33zm-47-37l2-116L46-87h72" id="bV"/><g id="E"><use transform="matrix(0.04938271604938272,0,0,0.04938271604938272,0,0)" xlink:href="#bV"/><use transform="matrix(0.04938271604938272,0,0,0.04938271604938272,9.876543209876544,0)" xlink:href="#bB"/></g><g id="F"><use transform="matrix(0.04938271604938272,0,0,0.04938271604938272,0,0)" xlink:href="#bQ"/><use transform="matrix(0.04938271604938272,0,0,0.04938271604938272,12.790123456790125,0)" xlink:href="#bG"/><use transform="matrix(0.04938271604938272,0,0,0.04938271604938272,22.66666666666667,0)" xlink:href="#bD"/><use transform="matrix(0.04938271604938272,0,0,0.04938271604938272,32.543209876543216,0)" xlink:href="#bL"/></g><path fill="#333" d="M195-6C206 82 75 100 31 46c-4-6-6-13-8-21l49-6c3 16 16 24 34 25 40 0 42-37 40-79-11 22-30 35-61 35-53 0-70-43-70-97 0-56 18-96 73-97 30 0 46 14 59 34l2-30h47zm-90-29c32 0 41-27 41-63 0-35-9-62-40-62-32 0-39 29-40 63 0 36 9 62 39 62" id="bW"/><g id="G"><use transform="matrix(0.04938271604938272,0,0,0.04938271604938272,0,0)" xlink:href="#bR"/><use transform="matrix(0.04938271604938272,0,0,0.04938271604938272,10.814814814814815,0)" xlink:href="#bK"/><use transform="matrix(0.04938271604938272,0,0,0.04938271604938272,21.62962962962963,0)" xlink:href="#bW"/><use transform="matrix(0.04938271604938272,0,0,0.04938271604938272,32.44444444444444,0)" xlink:href="#bM"/><use transform="matrix(0.04938271604938272,0,0,0.04938271604938272,37.382716049382715,0)" xlink:href="#bP"/></g><path d="M139-81c0-46-55-55-73-27H18l9-140h149v37H72l-4 63c44-38 133-4 122 66C201 21 21 35 11-62l49-4c5 18 15 30 39 30 26 0 40-18 40-45" id="bX"/><g id="H"><use transform="matrix(0.04938271604938272,0,0,0.04938271604938272,0,0)" xlink:href="#bX"/><use transform="matrix(0.04938271604938272,0,0,0.04938271604938272,9.876543209876544,0)" xlink:href="#bc"/></g><path d="M169-182c-1-43-94-46-97-3 18 66 151 10 154 114 3 95-165 93-204 36-6-8-10-19-12-30l50-8c3 46 112 56 116 5-17-69-150-10-154-114-4-87 153-88 188-35 5 8 8 18 10 28" id="bY"/><path d="M88-194c31-1 46 15 58 34l-1-101h50l1 261h-48c-2-10 0-23-3-31C134-8 116 4 84 4 32 4 16-41 15-95c0-56 19-97 73-99zm17 164c33 0 40-30 41-66 1-37-9-64-41-64s-38 30-39 65c0 43 13 65 39 65" id="bZ"/><path d="M137-138c1-29-70-34-71-4 15 46 118 7 119 86 1 83-164 76-172 9l43-7c4 19 20 25 44 25 33 8 57-30 24-41C81-84 22-81 20-136c-2-80 154-74 161-7" id="ca"/><g id="I"><use transform="matrix(0.04938271604938272,0,0,0.04938271604938272,0,0)" xlink:href="#bY"/><use transform="matrix(0.04938271604938272,0,0,0.04938271604938272,11.851851851851853,0)" xlink:href="#bf"/><use transform="matrix(0.04938271604938272,0,0,0.04938271604938272,21.7283950617284,0)" xlink:href="#bg"/><use transform="matrix(0.04938271604938272,0,0,0.04938271604938272,32.543209876543216,0)" xlink:href="#bZ"/><use transform="matrix(0.04938271604938272,0,0,0.04938271604938272,43.35802469135803,0)" xlink:href="#ca"/></g><path d="M67-125c0 53 21 87 73 88 37 1 54-22 65-47l45 17C233-25 199 4 140 4 58 4 20-42 15-125 8-235 124-281 211-232c18 10 29 29 36 50l-46 12c-8-25-30-41-62-41-52 0-71 34-72 86" id="cb"/><g id="J"><use transform="matrix(0.04938271604938272,0,0,0.04938271604938272,0,0)" xlink:href="#cb"/><use transform="matrix(0.04938271604938272,0,0,0.04938271604938272,12.790123456790125,0)" xlink:href="#bl"/><use transform="matrix(0.04938271604938272,0,0,0.04938271604938272,23.60493827160494,0)" xlink:href="#bZ"/><use transform="matrix(0.04938271604938272,0,0,0.04938271604938272,34.41975308641975,0)" xlink:href="#bf"/></g><g id="K"><use transform="matrix(0.04938271604938272,0,0,0.04938271604938272,0,0)" xlink:href="#bj"/><use transform="matrix(0.04938271604938272,0,0,0.04938271604938272,5.8765432098765435,0)" xlink:href="#bl"/></g><path d="M190-63c-7 42-38 67-86 67-59 0-84-38-90-98-12-110 154-137 174-36l-49 2c-2-19-15-32-35-32-30 0-35 28-38 64-6 74 65 87 74 30" id="cc"/><g id="L"><use transform="matrix(0.04938271604938272,0,0,0.04938271604938272,0,0)" xlink:href="#br"/><use transform="matrix(0.04938271604938272,0,0,0.04938271604938272,12.790123456790125,0)" xlink:href="#bf"/><use transform="matrix(0.04938271604938272,0,0,0.04938271604938272,22.66666666666667,0)" xlink:href="#bZ"/><use transform="matrix(0.04938271604938272,0,0,0.04938271604938272,33.48148148148149,0)" xlink:href="#bn"/><use transform="matrix(0.04938271604938272,0,0,0.04938271604938272,38.41975308641976,0)" xlink:href="#bm"/><use transform="matrix(0.04938271604938272,0,0,0.04938271604938272,45.33333333333334,0)" xlink:href="#bf"/><use transform="matrix(0.04938271604938272,0,0,0.04938271604938272,55.209876543209894,0)" xlink:href="#cc"/><use transform="matrix(0.04938271604938272,0,0,0.04938271604938272,65.08641975308643,0)" xlink:href="#bj"/></g><path d="M24 0v-248h52V0H24" id="cd"/><g id="M"><use transform="matrix(0.04938271604938272,0,0,0.04938271604938272,0,0)" xlink:href="#bq"/><use transform="matrix(0.04938271604938272,0,0,0.04938271604938272,12.790123456790125,0)" xlink:href="#br"/><use transform="matrix(0.04938271604938272,0,0,0.04938271604938272,25.58024691358025,0)" xlink:href="#cd"/></g><linearGradient gradientUnits="userSpaceOnUse" id="N" x1="-3421.75" y1="60.3" x2="-3421.75" y2="-100"><stop offset="0%" stop-color="#32bedd"/><stop offset="17.5%" stop-color="#32caea"/><stop offset="41%" stop-color="#32d2f2"/><stop offset="77.5%" stop-color="#32d4f5"/></linearGradient><path d="M266 0h-40l-56-210L115 0H75L2-248h35L96-30l15-64 43-154h32l59 218 59-218h35" id="ce"/><g id="O"><use transform="matrix(0.05,0,0,0.05,0,0)" xlink:href="#ce"/><use transform="matrix(0.05,0,0,0.05,16.599999999999998,0)" xlink:href="#aL"/><use transform="matrix(0.05,0,0,0.05,26.599999999999994,0)" xlink:href="#bv"/></g><path d="M160-131c35 5 61 23 61 61C221 17 115-2 30 0v-248c76 3 177-17 177 60 0 33-19 50-47 57zm-97-11c50-1 110 9 110-42 0-47-63-36-110-37v79zm0 115c55-2 124 14 124-45 0-56-70-42-124-44v89" id="cf"/><path d="M206 0h-36l-40-164L89 0H53L-1-190h32L70-26l43-164h34l41 164 42-164h31" id="cg"/><g id="P"><use transform="matrix(0.05,0,0,0.05,0,0)" xlink:href="#cf"/><use transform="matrix(0.05,0,0,0.05,12,0)" xlink:href="#aM"/><use transform="matrix(0.05,0,0,0.05,17.95,0)" xlink:href="#aT"/><use transform="matrix(0.05,0,0,0.05,27.950000000000003,0)" xlink:href="#cg"/><use transform="matrix(0.05,0,0,0.05,40.9,0)" xlink:href="#aQ"/><use transform="matrix(0.05,0,0,0.05,49.9,0)" xlink:href="#aL"/><use transform="matrix(0.05,0,0,0.05,59.900000000000006,0)" xlink:href="#aM"/></g><path d="M115-159c48 0 72 30 72 78 0 54-30 85-83 85-64 0-91-50-91-122 0-98 58-163 141-120 15 8 21 24 27 44l-47 6c-5-31-48-31-61-4-7 14-11 33-11 60 9-17 28-27 53-27zM102-35c24 0 36-20 36-45s-11-43-37-43c-23 0-36 14-36 38 0 27 11 50 37 50" id="ch"/><g id="Q"><use transform="matrix(0.04938271604938272,0,0,0.04938271604938272,0,0)" xlink:href="#ch"/><use transform="matrix(0.04938271604938272,0,0,0.04938271604938272,9.876543209876544,0)" xlink:href="#bc"/></g><g id="R"><use transform="matrix(0.04938271604938272,0,0,0.04938271604938272,0,0)" xlink:href="#bY"/><use transform="matrix(0.04938271604938272,0,0,0.04938271604938272,11.851851851851853,0)" xlink:href="#bf"/><use transform="matrix(0.04938271604938272,0,0,0.04938271604938272,21.7283950617284,0)" xlink:href="#bg"/><use transform="matrix(0.04938271604938272,0,0,0.04938271604938272,32.543209876543216,0)" xlink:href="#bZ"/><use transform="matrix(0.04938271604938272,0,0,0.04938271604938272,43.35802469135803,0)" xlink:href="#ca"/></g><g id="S"><use transform="matrix(0.04938271604938272,0,0,0.04938271604938272,0,0)" xlink:href="#bh"/><use transform="matrix(0.04938271604938272,0,0,0.04938271604938272,12.790123456790125,0)" xlink:href="#bi"/><use transform="matrix(0.04938271604938272,0,0,0.04938271604938272,23.60493827160494,0)" xlink:href="#bj"/><use transform="matrix(0.04938271604938272,0,0,0.04938271604938272,29.481481481481485,0)" xlink:href="#bk"/><use transform="matrix(0.04938271604938272,0,0,0.04938271604938272,40.2962962962963,0)" xlink:href="#bl"/><use transform="matrix(0.04938271604938272,0,0,0.04938271604938272,51.111111111111114,0)" xlink:href="#bm"/><use transform="matrix(0.04938271604938272,0,0,0.04938271604938272,58.0246913580247,0)" xlink:href="#bn"/><use transform="matrix(0.04938271604938272,0,0,0.04938271604938272,62.96296296296297,0)" xlink:href="#bo"/><use transform="matrix(0.04938271604938272,0,0,0.04938271604938272,71.85185185185186,0)" xlink:href="#bp"/><use transform="matrix(0.04938271604938272,0,0,0.04938271604938272,81.7283950617284,0)" xlink:href="#bj"/><use transform="matrix(0.04938271604938272,0,0,0.04938271604938272,87.60493827160495,0)" xlink:href="#bn"/><use transform="matrix(0.04938271604938272,0,0,0.04938271604938272,92.54320987654322,0)" xlink:href="#bl"/><use transform="matrix(0.04938271604938272,0,0,0.04938271604938272,103.35802469135804,0)" xlink:href="#bg"/></g><g id="T"><use transform="matrix(0.04938271604938272,0,0,0.04938271604938272,0,0)" xlink:href="#cb"/><use transform="matrix(0.04938271604938272,0,0,0.04938271604938272,12.790123456790125,0)" xlink:href="#bl"/><use transform="matrix(0.04938271604938272,0,0,0.04938271604938272,23.60493827160494,0)" xlink:href="#bZ"/><use transform="matrix(0.04938271604938272,0,0,0.04938271604938272,34.41975308641975,0)" xlink:href="#bf"/></g><path fill="#333" d="M52 0c1-96 47-148 87-207H15v-41h169v40c-36 62-79 113-81 208H52" id="ci"/><g id="U"><use transform="matrix(0.04938271604938272,0,0,0.04938271604938272,0,0)" xlink:href="#ci"/><use transform="matrix(0.04938271604938272,0,0,0.04938271604938272,9.876543209876544,0)" xlink:href="#bB"/></g><g id="V"><use transform="matrix(0.04938271604938272,0,0,0.04938271604938272,0,0)" xlink:href="#bI"/><use transform="matrix(0.04938271604938272,0,0,0.04938271604938272,12.790123456790125,0)" xlink:href="#bE"/><use transform="matrix(0.04938271604938272,0,0,0.04938271604938272,23.60493827160494,0)" xlink:href="#bF"/><use transform="matrix(0.04938271604938272,0,0,0.04938271604938272,34.41975308641975,0)" xlink:href="#bM"/><use transform="matrix(0.04938271604938272,0,0,0.04938271604938272,39.358024691358025,0)" xlink:href="#bL"/><use transform="matrix(0.04938271604938272,0,0,0.04938271604938272,46.27160493827161,0)" xlink:href="#bD"/></g><path fill="#333" d="M136-208V0H84v-208H4v-40h212v40h-80" id="cj"/><path fill="#333" d="M147 0L96-86 75-71V0H25v-261h50v150l67-79h53l-66 74L201 0h-54" id="ck"/><g id="W"><use transform="matrix(0.04938271604938272,0,0,0.04938271604938272,0,0)" xlink:href="#cj"/><use transform="matrix(0.04938271604938272,0,0,0.04938271604938272,9.481481481481481,0)" xlink:href="#bK"/><use transform="matrix(0.04938271604938272,0,0,0.04938271604938272,20.296296296296298,0)" xlink:href="#ck"/><use transform="matrix(0.04938271604938272,0,0,0.04938271604938272,30.172839506172842,0)" xlink:href="#bD"/><use transform="matrix(0.04938271604938272,0,0,0.04938271604938272,40.04938271604939,0)" xlink:href="#bP"/></g><g id="X"><use transform="matrix(0.04938271604938272,0,0,0.04938271604938272,0,0)" xlink:href="#bC"/><use transform="matrix(0.04938271604938272,0,0,0.04938271604938272,12.790123456790125,0)" xlink:href="#bD"/><use transform="matrix(0.04938271604938272,0,0,0.04938271604938272,22.66666666666667,0)" xlink:href="#bE"/><use transform="matrix(0.04938271604938272,0,0,0.04938271604938272,33.48148148148149,0)" xlink:href="#bF"/><use transform="matrix(0.04938271604938272,0,0,0.04938271604938272,44.296296296296305,0)" xlink:href="#bD"/><use transform="matrix(0.04938271604938272,0,0,0.04938271604938272,54.17283950617284,0)" xlink:href="#bG"/><use transform="matrix(0.04938271604938272,0,0,0.04938271604938272,64.0493827160494,0)" xlink:href="#bH"/></g><g id="Y"><use transform="matrix(0.04938271604938272,0,0,0.04938271604938272,0,0)" xlink:href="#bQ"/><use transform="matrix(0.04938271604938272,0,0,0.04938271604938272,12.790123456790125,0)" xlink:href="#bG"/><use transform="matrix(0.04938271604938272,0,0,0.04938271604938272,22.66666666666667,0)" xlink:href="#bM"/><use transform="matrix(0.04938271604938272,0,0,0.04938271604938272,27.604938271604947,0)" xlink:href="#bP"/><use transform="matrix(0.04938271604938272,0,0,0.04938271604938272,38.41975308641976,0)" xlink:href="#bW"/></g><path fill="#333" d="M67-125c0 53 21 87 73 88 37 1 54-22 65-47l45 17C233-25 199 4 140 4 58 4 20-42 15-125 8-235 124-281 211-232c18 10 29 29 36 50l-46 12c-8-25-30-41-62-41-52 0-71 34-72 86" id="cl"/><g id="Z"><use transform="matrix(0.04938271604938272,0,0,0.04938271604938272,0,0)" xlink:href="#cl"/><use transform="matrix(0.04938271604938272,0,0,0.04938271604938272,12.790123456790125,0)" xlink:href="#bK"/><use transform="matrix(0.04938271604938272,0,0,0.04938271604938272,23.60493827160494,0)" xlink:href="#bU"/><use transform="matrix(0.04938271604938272,0,0,0.04938271604938272,34.41975308641975,0)" xlink:href="#bD"/></g><g id="aa"><use transform="matrix(0.04938271604938272,0,0,0.04938271604938272,0,0)" xlink:href="#bO"/><use transform="matrix(0.04938271604938272,0,0,0.04938271604938272,9.876543209876544,0)" xlink:href="#bP"/><use transform="matrix(0.04938271604938272,0,0,0.04938271604938272,20.69135802469136,0)" xlink:href="#bU"/></g><path fill="#333" d="M190-63c-7 42-38 67-86 67-59 0-84-38-90-98-12-110 154-137 174-36l-49 2c-2-19-15-32-35-32-30 0-35 28-38 64-6 74 65 87 74 30" id="cm"/><g id="ab"><use transform="matrix(0.04938271604938272,0,0,0.04938271604938272,0,0)" xlink:href="#bC"/><use transform="matrix(0.04938271604938272,0,0,0.04938271604938272,12.790123456790125,0)" xlink:href="#bD"/><use transform="matrix(0.04938271604938272,0,0,0.04938271604938272,22.66666666666667,0)" xlink:href="#bU"/><use transform="matrix(0.04938271604938272,0,0,0.04938271604938272,33.48148148148149,0)" xlink:href="#bM"/><use transform="matrix(0.04938271604938272,0,0,0.04938271604938272,38.41975308641976,0)" xlink:href="#bL"/><use transform="matrix(0.04938271604938272,0,0,0.04938271604938272,45.33333333333334,0)" xlink:href="#bD"/><use transform="matrix(0.04938271604938272,0,0,0.04938271604938272,55.209876543209894,0)" xlink:href="#cm"/><use transform="matrix(0.04938271604938272,0,0,0.04938271604938272,65.08641975308643,0)" xlink:href="#bH"/></g><path fill="#333" d="M24 0v-248h52V0H24" id="cn"/><g id="ac"><use transform="matrix(0.04938271604938272,0,0,0.04938271604938272,0,0)" xlink:href="#bQ"/><use transform="matrix(0.04938271604938272,0,0,0.04938271604938272,12.790123456790125,0)" xlink:href="#bC"/><use transform="matrix(0.04938271604938272,0,0,0.04938271604938272,25.58024691358025,0)" xlink:href="#cn"/></g><radialGradient gradientUnits="userSpaceOnUse" id="ad" fx="-2460" fy="-285.65" cx="-2460" cy="-285.65" r="60"><stop offset="18%" stop-color="#5ea0ef" stop-opacity=".75"/><stop offset="56%" stop-color="#5c9fee" stop-opacity=".75"/><stop offset="69%" stop-color="#559ced" stop-opacity=".75"/><stop offset="78%" stop-color="#4a97e9" stop-opacity=".75"/><stop offset="86%" stop-color="#3990e4" stop-opacity=".75"/><stop offset="93%" stop-color="#2387de" stop-opacity=".75"/><stop offset="99%" stop-color="#087bd6" stop-opacity=".75"/><stop offset="100%" stop-color="#0078d4" stop-opacity=".75"/></radialGradient><radialGradient gradientUnits="userSpaceOnUse" id="ae" fx="-2473.23" fy="-294.06" cx="-2473.23" cy="-294.06" r="69.86"><stop offset="27%" stop-color="#ffd70f" stop-opacity=".75"/><stop offset="49%" stop-color="#ffcb12" stop-opacity=".75"/><stop offset="88%" stop-color="#feac19" stop-opacity=".75"/><stop offset="100%" stop-color="#fea11b" stop-opacity=".75"/></radialGradient><g id="af"><use transform="matrix(0.05,0,0,0.05,0,0)" xlink:href="#bt"/><use transform="matrix(0.05,0,0,0.05,12,0)" xlink:href="#aW"/><use transform="matrix(0.05,0,0,0.05,21,0)" xlink:href="#aW"/><use transform="matrix(0.05,0,0,0.05,30,0)" xlink:href="#aL"/><use transform="matrix(0.05,0,0,0.05,40,0)" xlink:href="#aQ"/><use transform="matrix(0.05,0,0,0.05,49,0)" xlink:href="#aQ"/></g><path d="M143 0L79-87 56-68V0H24v-261h32v163l83-92h37l-77 82L181 0h-38" id="co"/><g id="ag"><use transform="matrix(0.05,0,0,0.05,0,0)" xlink:href="#aI"/><use transform="matrix(0.05,0,0,0.05,8.950000000000001,0)" xlink:href="#aT"/><use transform="matrix(0.05,0,0,0.05,18.950000000000003,0)" xlink:href="#co"/><use transform="matrix(0.05,0,0,0.05,27.950000000000003,0)" xlink:href="#aL"/><use transform="matrix(0.05,0,0,0.05,37.95,0)" xlink:href="#aS"/></g><g id="ah"><use transform="matrix(0.05,0,0,0.05,0,0)" xlink:href="#ba"/><use transform="matrix(0.05,0,0,0.05,5,0)" xlink:href="#aT"/><use transform="matrix(0.05,0,0,0.05,15,0)" xlink:href="#aM"/></g><g id="ai"><use transform="matrix(0.05,0,0,0.05,0,0)" xlink:href="#aZ"/><use transform="matrix(0.05,0,0,0.05,14.950000000000001,0)" xlink:href="#aK"/></g><path d="M143 4C61 4 22-44 18-125c-5-107 100-154 193-111 17 8 29 25 37 43l-32 9c-13-25-37-40-76-40-61 0-88 39-88 99 0 61 29 100 91 101 35 0 62-11 79-27v-45h-74v-28h105v86C228-13 192 4 143 4" id="cp"/><path d="M106-169C34-169 62-67 57 0H25v-261h32l-1 103c12-21 28-36 61-36 89 0 53 116 60 194h-32v-121c2-32-8-49-39-48" id="cq"/><g id="aj"><use transform="matrix(0.05,0,0,0.05,0,0)" xlink:href="#cp"/><use transform="matrix(0.05,0,0,0.05,14,0)" xlink:href="#aM"/><use transform="matrix(0.05,0,0,0.05,19.95,0)" xlink:href="#bz"/><use transform="matrix(0.05,0,0,0.05,29.950000000000003,0)" xlink:href="#by"/><use transform="matrix(0.05,0,0,0.05,39.95,0)" xlink:href="#cq"/></g><g id="ak"><use transform="matrix(0.05,0,0,0.05,0,0)" xlink:href="#bt"/><use transform="matrix(0.05,0,0,0.05,12,0)" xlink:href="#aJ"/><use transform="matrix(0.05,0,0,0.05,24,0)" xlink:href="#aY"/></g><path fill="#333" d="M138-131c27 9 52 24 51 61 0 53-36 74-89 74S11-19 11-69c0-35 22-54 51-61-78-25-46-121 38-121 51 0 83 19 83 66 0 30-18 49-45 54zm-38-16c24 0 32-13 32-36 1-23-11-34-32-34-22 0-33 12-32 34 0 22 9 36 32 36zm1 116c27 0 37-17 37-43 0-25-13-39-39-39-24 0-37 15-37 40 0 27 11 42 39 42" id="cr"/><g id="al"><use transform="matrix(0.04938271604938272,0,0,0.04938271604938272,0,0)" xlink:href="#cr"/><use transform="matrix(0.04938271604938272,0,0,0.04938271604938272,9.876543209876544,0)" xlink:href="#bB"/></g><path fill="#333" d="M67-125c0 54 23 88 75 88 28 0 53-7 68-21v-34h-60v-39h108v91C232-14 192 4 140 4 58 4 20-42 15-125 8-236 126-280 215-234c19 10 29 26 37 47l-47 15c-11-23-29-39-63-39-53 1-75 33-75 86" id="cs"/><g id="am"><use transform="matrix(0.04938271604938272,0,0,0.04938271604938272,0,0)" xlink:href="#cs"/><use transform="matrix(0.04938271604938272,0,0,0.04938271604938272,13.827160493827162,0)" xlink:href="#bL"/><use transform="matrix(0.04938271604938272,0,0,0.04938271604938272,20.74074074074074,0)" xlink:href="#bO"/><use transform="matrix(0.04938271604938272,0,0,0.04938271604938272,30.617283950617285,0)" xlink:href="#bP"/><use transform="matrix(0.04938271604938272,0,0,0.04938271604938272,41.4320987654321,0)" xlink:href="#bH"/><use transform="matrix(0.04938271604938272,0,0,0.04938271604938272,47.308641975308646,0)" xlink:href="#bG"/></g><g id="an"><use transform="matrix(0.04938271604938272,0,0,0.04938271604938272,0,0)" xlink:href="#bI"/><use transform="matrix(0.04938271604938272,0,0,0.04938271604938272,12.790123456790125,0)" xlink:href="#cm"/><use transform="matrix(0.04938271604938272,0,0,0.04938271604938272,22.66666666666667,0)" xlink:href="#cm"/><use transform="matrix(0.04938271604938272,0,0,0.04938271604938272,32.543209876543216,0)" xlink:href="#bD"/><use transform="matrix(0.04938271604938272,0,0,0.04938271604938272,42.41975308641976,0)" xlink:href="#bG"/><use transform="matrix(0.04938271604938272,0,0,0.04938271604938272,52.2962962962963,0)" xlink:href="#bG"/></g><g id="ao"><use transform="matrix(0.04938271604938272,0,0,0.04938271604938272,0,0)" xlink:href="#cj"/><use transform="matrix(0.04938271604938272,0,0,0.04938271604938272,9.481481481481481,0)" xlink:href="#bK"/><use transform="matrix(0.04938271604938272,0,0,0.04938271604938272,20.296296296296298,0)" xlink:href="#ck"/><use transform="matrix(0.04938271604938272,0,0,0.04938271604938272,30.172839506172842,0)" xlink:href="#bD"/><use transform="matrix(0.04938271604938272,0,0,0.04938271604938272,40.04938271604939,0)" xlink:href="#bP"/></g><path d="M177-190C167-65 218 103 67 71c-23-6-38-20-44-43l32-5c15 47 100 32 89-28v-30C133-14 115 1 83 1 29 1 15-40 15-95c0-56 16-97 71-98 29-1 48 16 59 35 1-10 0-23 2-32h30zM94-22c36 0 50-32 50-73 0-42-14-75-50-75-39 0-46 34-46 75s6 73 46 73" id="ct"/><g id="ap"><use transform="matrix(0.06172839506172839,0,0,0.06172839506172839,0,0)" xlink:href="#aO"/><use transform="matrix(0.06172839506172839,0,0,0.06172839506172839,12.345679012345679,0)" xlink:href="#aT"/><use transform="matrix(0.06172839506172839,0,0,0.06172839506172839,24.691358024691358,0)" xlink:href="#ct"/><use transform="matrix(0.06172839506172839,0,0,0.06172839506172839,37.03703703703704,0)" xlink:href="#aP"/><use transform="matrix(0.06172839506172839,0,0,0.06172839506172839,41.91358024691358,0)" xlink:href="#aS"/></g><g id="aq"><use transform="matrix(0.06172839506172839,0,0,0.06172839506172839,0,0)" xlink:href="#aJ"/><use transform="matrix(0.06172839506172839,0,0,0.06172839506172839,14.814814814814813,0)" xlink:href="#bz"/><use transform="matrix(0.06172839506172839,0,0,0.06172839506172839,27.160493827160494,0)" xlink:href="#ct"/><use transform="matrix(0.06172839506172839,0,0,0.06172839506172839,39.50617283950617,0)" xlink:href="#aL"/></g><linearGradient gradientUnits="userSpaceOnUse" id="ar" x1="-2949.98" y1="100.49" x2="-2949.98" y2=".5"><stop offset="0%" stop-color="#0078d4"/><stop offset="6%" stop-color="#0a7cd7"/><stop offset="34%" stop-color="#2e8ce1"/><stop offset="59%" stop-color="#4897e9"/><stop offset="82%" stop-color="#589eed"/><stop offset="100%" stop-color="#5ea0ef"/></linearGradient><linearGradient gradientUnits="userSpaceOnUse" id="as" x1="-4018.2" y1="42.99" x2="-4018.2" y2="-57"><stop offset="0%" stop-color="#0078d4"/><stop offset="6%" stop-color="#0a7cd7"/><stop offset="34%" stop-color="#2e8ce1"/><stop offset="59%" stop-color="#4897e9"/><stop offset="82%" stop-color="#589eed"/><stop offset="100%" stop-color="#5ea0ef"/></linearGradient><path d="M230 0l2-204L168 0h-37L68-204 70 0H24v-248h70l56 185 57-185h69V0h-46" id="cu"/><path d="M121-226c-27-7-43 5-38 36h38v33H83V0H34v-157H6v-33h28c-9-59 32-81 87-68v32" id="cv"/><g id="at"><use transform="matrix(0.06666666666666667,0,0,0.06666666666666667,0,0)" xlink:href="#cu"/><use transform="matrix(0.06666666666666667,0,0,0.06666666666666667,19.933333333333334,0)" xlink:href="#bn"/><use transform="matrix(0.06666666666666667,0,0,0.06666666666666667,26.599999999999998,0)" xlink:href="#cc"/><use transform="matrix(0.06666666666666667,0,0,0.06666666666666667,39.93333333333334,0)" xlink:href="#bm"/><use transform="matrix(0.06666666666666667,0,0,0.06666666666666667,49.26666666666667,0)" xlink:href="#bl"/><use transform="matrix(0.06666666666666667,0,0,0.06666666666666667,63.866666666666674,0)" xlink:href="#ca"/><use transform="matrix(0.06666666666666667,0,0,0.06666666666666667,77.2,0)" xlink:href="#bl"/><use transform="matrix(0.06666666666666667,0,0,0.06666666666666667,91.8,0)" xlink:href="#cv"/><use transform="matrix(0.06666666666666667,0,0,0.06666666666666667,99.73333333333333,0)" xlink:href="#bj"/></g><g id="au"><use transform="matrix(0.06666666666666667,0,0,0.06666666666666667,0,0)" xlink:href="#bh"/><use transform="matrix(0.06666666666666667,0,0,0.06666666666666667,17.266666666666666,0)" xlink:href="#cc"/><use transform="matrix(0.06666666666666667,0,0,0.06666666666666667,30.599999999999998,0)" xlink:href="#cc"/><use transform="matrix(0.06666666666666667,0,0,0.06666666666666667,43.93333333333334,0)" xlink:href="#bl"/><use transform="matrix(0.06666666666666667,0,0,0.06666666666666667,58.53333333333334,0)" xlink:href="#bi"/><use transform="matrix(0.06666666666666667,0,0,0.06666666666666667,73.13333333333335,0)" xlink:href="#bg"/><use transform="matrix(0.06666666666666667,0,0,0.06666666666666667,87.73333333333333,0)" xlink:href="#bj"/></g><g id="av"><use transform="matrix(0.06666666666666667,0,0,0.06666666666666667,0,0)" xlink:href="#bh"/><use transform="matrix(0.06666666666666667,0,0,0.06666666666666667,17.266666666666666,0)" xlink:href="#be"/><use transform="matrix(0.06666666666666667,0,0,0.06666666666666667,31.866666666666667,0)" xlink:href="#be"/></g><path d="M195-6C206 82 75 100 31 46c-4-6-6-13-8-21l49-6c3 16 16 24 34 25 40 0 42-37 40-79-11 22-30 35-61 35-53 0-70-43-70-97 0-56 18-96 73-97 30 0 46 14 59 34l2-30h47zm-90-29c32 0 41-27 41-63 0-35-9-62-40-62-32 0-39 29-40 63 0 36 9 62 39 62" id="cw"/><g id="aw"><use transform="matrix(0.06666666666666667,0,0,0.06666666666666667,0,0)" xlink:href="#cb"/><use transform="matrix(0.06666666666666667,0,0,0.06666666666666667,17.266666666666666,0)" xlink:href="#bl"/><use transform="matrix(0.06666666666666667,0,0,0.06666666666666667,31.866666666666667,0)" xlink:href="#bg"/><use transform="matrix(0.06666666666666667,0,0,0.06666666666666667,46.46666666666667,0)" xlink:href="#cv"/><use transform="matrix(0.06666666666666667,0,0,0.06666666666666667,54.400000000000006,0)" xlink:href="#bn"/><use transform="matrix(0.06666666666666667,0,0,0.06666666666666667,61.06666666666667,0)" xlink:href="#cw"/><use transform="matrix(0.06666666666666667,0,0,0.06666666666666667,75.66666666666667,0)" xlink:href="#bi"/><use transform="matrix(0.06666666666666667,0,0,0.06666666666666667,90.26666666666667,0)" xlink:href="#bm"/><use transform="matrix(0.06666666666666667,0,0,0.06666666666666667,99.6,0)" xlink:href="#bp"/><use transform="matrix(0.06666666666666667,0,0,0.06666666666666667,112.93333333333332,0)" xlink:href="#bj"/><use transform="matrix(0.06666666666666667,0,0,0.06666666666666667,120.86666666666666,0)" xlink:href="#bn"/><use transform="matrix(0.06666666666666667,0,0,0.06666666666666667,127.53333333333333,0)" xlink:href="#bl"/><use transform="matrix(0.06666666666666667,0,0,0.06666666666666667,142.13333333333333,0)" xlink:href="#bg"/></g><path d="M67-125c0 54 23 88 75 88 28 0 53-7 68-21v-34h-60v-39h108v91C232-14 192 4 140 4 58 4 20-42 15-125 8-236 126-280 215-234c19 10 29 26 37 47l-47 15c-11-23-29-39-63-39-53 1-75 33-75 86" id="cx"/><g id="ax"><use transform="matrix(0.06666666666666667,0,0,0.06666666666666667,0,0)" xlink:href="#cx"/><use transform="matrix(0.06666666666666667,0,0,0.06666666666666667,18.666666666666668,0)" xlink:href="#bm"/><use transform="matrix(0.06666666666666667,0,0,0.06666666666666667,28,0)" xlink:href="#bp"/><use transform="matrix(0.06666666666666667,0,0,0.06666666666666667,41.333333333333336,0)" xlink:href="#be"/><use transform="matrix(0.06666666666666667,0,0,0.06666666666666667,55.93333333333334,0)" xlink:href="#bk"/></g><path d="M24-248c93 1 206-16 204 79-1 75-69 88-152 82V0H24v-248zm52 121c47 0 100 7 100-41 0-47-54-39-100-39v80" id="cy"/><g id="ay"><use transform="matrix(0.06666666666666667,0,0,0.06666666666666667,0,0)" xlink:href="#bh"/><use transform="matrix(0.06666666666666667,0,0,0.06666666666666667,17.266666666666666,0)" xlink:href="#cy"/><use transform="matrix(0.06666666666666667,0,0,0.06666666666666667,33.266666666666666,0)" xlink:href="#cd"/></g><radialGradient gradientUnits="userSpaceOnUse" id="az" fx="-3076.41" fy="-770.66" cx="-3076.41" cy="-770.66" r="30.05"><stop offset="18%" stop-color="#5ea0ef" stop-opacity=".7"/><stop offset="100%" stop-color="#0078d4" stop-opacity=".7"/></radialGradient><linearGradient gradientUnits="userSpaceOnUse" id="aA" x1="-3076.22" y1="-739.83" x2="-3076.55" y2="-783.24"><stop offset="0%" stop-color="#ccc" stop-opacity=".7"/><stop offset="100%" stop-color="#fcfcfc" stop-opacity=".7"/></linearGradient><linearGradient gradientUnits="userSpaceOnUse" id="aB" x1="-3076.44" y1="-740.6" x2="-3076.44" y2="-800.43"><stop offset="0%" stop-color="#ccc" stop-opacity=".7"/><stop offset="100%" stop-color="#fcfcfc" stop-opacity=".7"/></linearGradient><linearGradient gradientUnits="userSpaceOnUse" id="aC" x1="-3076.44" y1="-740.76" x2="-3076.44" y2="-800.6"><stop offset="0%" stop-color="#ccc" stop-opacity=".7"/><stop offset="100%" stop-color="#fcfcfc" stop-opacity=".7"/></linearGradient><linearGradient gradientUnits="userSpaceOnUse" id="aD" x1="-3076.22" y1="-739.83" x2="-3076.55" y2="-783.24"><stop offset="0%" stop-color="#ccc" stop-opacity=".7"/><stop offset="100%" stop-color="#fcfcfc" stop-opacity=".7"/></linearGradient><linearGradient gradientUnits="userSpaceOnUse" id="aE" x1="-3076.44" y1="-740.6" x2="-3076.44" y2="-800.43"><stop offset="0%" stop-color="#ccc" stop-opacity=".7"/><stop offset="100%" stop-color="#fcfcfc" stop-opacity=".7"/></linearGradient><g id="aF"><use transform="matrix(0.06172839506172839,0,0,0.06172839506172839,0,0)" xlink:href="#bt"/><use transform="matrix(0.06172839506172839,0,0,0.06172839506172839,14.814814814814813,0)" xlink:href="#bu"/><use transform="matrix(0.06172839506172839,0,0,0.06172839506172839,27.160493827160494,0)" xlink:href="#aR"/><use transform="matrix(0.06172839506172839,0,0,0.06172839506172839,33.333333333333336,0)" xlink:href="#cq"/><use transform="matrix(0.06172839506172839,0,0,0.06172839506172839,45.67901234567901,0)" xlink:href="#aL"/><use transform="matrix(0.06172839506172839,0,0,0.06172839506172839,58.02469135802469,0)" xlink:href="#aS"/><use transform="matrix(0.06172839506172839,0,0,0.06172839506172839,70.37037037037037,0)" xlink:href="#aR"/><use transform="matrix(0.06172839506172839,0,0,0.06172839506172839,76.5432098765432,0)" xlink:href="#aP"/><use transform="matrix(0.06172839506172839,0,0,0.06172839506172839,81.41975308641975,0)" xlink:href="#aW"/><use transform="matrix(0.06172839506172839,0,0,0.06172839506172839,92.53086419753086,0)" xlink:href="#bz"/><use transform="matrix(0.06172839506172839,0,0,0.06172839506172839,104.87654320987654,0)" xlink:href="#aR"/><use transform="matrix(0.06172839506172839,0,0,0.06172839506172839,111.04938271604938,0)" xlink:href="#aP"/><use transform="matrix(0.06172839506172839,0,0,0.06172839506172839,115.92592592592592,0)" xlink:href="#aT"/><use transform="matrix(0.06172839506172839,0,0,0.06172839506172839,128.2716049382716,0)" xlink:href="#aS"/></g><g id="aG"><use transform="matrix(0.06172839506172839,0,0,0.06172839506172839,0,0)" xlink:href="#aJ"/><use transform="matrix(0.06172839506172839,0,0,0.06172839506172839,14.814814814814813,0)" xlink:href="#aM"/><use transform="matrix(0.06172839506172839,0,0,0.06172839506172839,22.160493827160494,0)" xlink:href="#aT"/><use transform="matrix(0.06172839506172839,0,0,0.06172839506172839,34.50617283950617,0)" xlink:href="#aW"/><use transform="matrix(0.06172839506172839,0,0,0.06172839506172839,45.61728395061728,0)" xlink:href="#aL"/><use transform="matrix(0.06172839506172839,0,0,0.06172839506172839,57.962962962962955,0)" xlink:href="#aQ"/><use transform="matrix(0.06172839506172839,0,0,0.06172839506172839,69.07407407407406,0)" xlink:href="#aQ"/></g></defs></g></svg>